  0
SECTION
  2
HEADER
  9
$ACADVER
  1
AC1009
  9
$INSBASE
 10
0.0
 20
0.0
 30
0.0
  9
$EXTMIN
 10
0.0
 20
0.0
 30
0.0
  9
$EXTMAX
 10
100.0
 20
100.0
 30
0.0
  9
$UNITMODE
 70
0
  9
$AUNITS
 70
0
  9
$ANGBASE
 50
0.0
  9
$ANGDIR
 70
0
  0
ENDSEC
  0
SECTION
  2
TABLES
  0
TABLE
  2
LTYPE
 70
19
  0
LTYPE
  2
CONTINUOUS
 70
0
  3
Solid
 72
65
 73
0
 40
0.0
  0
LTYPE
  2
CENTER
 70
0
  3
Center ____ _ ____ _ ____ _ ____ _ ____ _ ____
 72
65
 73
4
 40
2.0
 49
1.25
 49
-0.25
 49
0.25
 49
-0.25
  0
LTYPE
  2
CENTERX2
 70
0
  3
Center (2x) ________  __  ________  __  ________
 72
65
 73
4
 40
3.5
 49
2.5
 49
-0.25
 49
0.5
 49
-0.25
  0
LTYPE
  2
CENTER2
 70
0
  3
Center (.5x) ____ _ ____ _ ____ _ ____ _ ____
 72
65
 73
4
 40
1.0
 49
0.625
 49
-0.125
 49
0.125
 49
-0.125
  0
LTYPE
  2
DASHED
 70
0
  3
Dashed __ __ __ __ __ __ __ __ __ __ __ __ __ _
 72
65
 73
2
 40
0.6
 49
0.5
 49
-0.1
  0
LTYPE
  2
DASHEDX2
 70
0
  3
Dashed (2x) ____  ____  ____  ____  ____  ____
 72
65
 73
2
 40
1.2
 49
1.0
 49
-0.2
  0
LTYPE
  2
DASHED2
 70
0
  3
Dashed (.5x) _ _ _ _ _ _ _ _ _ _ _ _ _ _
 72
65
 73
2
 40
0.3
 49
0.25
 49
-0.05
  0
LTYPE
  2
PHANTOM
 70
0
  3
Phantom ______  __  __  ______  __  __  ______
 72
65
 73
6
 40
2.5
 49
1.25
 49
-0.25
 49
0.25
 49
-0.25
 49
0.25
 49
-0.25
  0
LTYPE
  2
PHANTOMX2
 70
0
  3
Phantom (2x)____________    ____    ____    ____________
 72
65
 73
6
 40
4.25
 49
2.5
 49
-0.25
 49
0.5
 49
-0.25
 49
0.5
 49
-0.25
  0
LTYPE
  2
PHANTOM2
 70
0
  3
Phantom (.5x) ___ _ _ ___ _ _ ___ _ _ ___ _ _ ___
 72
65
 73
6
 40
1.25
 49
0.625
 49
-0.125
 49
0.125
 49
-0.125
 49
0.125
 49
-0.125
  0
LTYPE
  2
DASHDOT
 70
0
  3
Dash dot __ . __ . __ . __ . __ . __ . __ . __
 72
65
 73
4
 40
1.4
 49
1.0
 49
-0.2
 49
0.0
 49
-0.2
  0
LTYPE
  2
DASHDOTX2
 70
0
  3
Dash dot (2x) ____  .  ____  .  ____  .  ____
 72
65
 73
4
 40
2.4
 49
2.0
 49
-0.2
 49
0.0
 49
-0.2
  0
LTYPE
  2
DASHDOT2
 70
0
  3
Dash dot (.5x) _ . _ . _ . _ . _ . _ . _ . _
 72
65
 73
4
 40
0.7
 49
0.5
 49
-0.1
 49
0.0
 49
-0.1
  0
LTYPE
  2
DOT
 70
0
  3
Dot .  .  .  .  .  .  .  .  .  .  .  .  .  .  .  .
 72
65
 73
2
 40
0.2
 49
0.0
 49
-0.2
  0
LTYPE
  2
DOTX2
 70
0
  3
Dot (2x) .    .    .    .    .    .    .    . 
 72
65
 73
2
 40
0.4
 49
0.0
 49
-0.4
  0
LTYPE
  2
DOT2
 70
0
  3
Dot (.5) . . . . . . . . . . . . . . . . . . . 
 72
65
 73
2
 40
0.1
 49
0.0
 49
-0.1
  0
LTYPE
  2
DIVIDE
 70
0
  3
Divide __ . . __ . . __ . . __ . . __ . . __
 72
65
 73
6
 40
1.6
 49
1.0
 49
-0.2
 49
0.0
 49
-0.2
 49
0.0
 49
-0.2
  0
LTYPE
  2
DIVIDEX2
 70
0
  3
Divide (2x) ____  . .  ____  . .  ____  . .  ____
 72
65
 73
6
 40
2.6
 49
2.0
 49
-0.2
 49
0.0
 49
-0.2
 49
0.0
 49
-0.2
  0
LTYPE
  2
DIVIDE2
 70
0
  3
Divide(.5x) _ . _ . _ . _ . _ . _ . _ . _
 72
65
 73
6
 40
0.8
 49
0.5
 49
-0.1
 49
0.0
 49
-0.1
 49
0.0
 49
-0.1
  0
ENDTAB
  0
TABLE
  2
LAYER
 70
5
  0
LAYER
  2
DIMENSIONS
 70
0
 62
1
  6
CONTINUOUS
  0
LAYER
  2
TABLEBACKGROUND
 70
0
 62
1
  6
CONTINUOUS
  0
LAYER
  2
TABLECONTENT
 70
0
 62
1
  6
CONTINUOUS
  0
LAYER
  2
TABLEGRID
 70
0
 62
1
  6
CONTINUOUS
  0
LAYER
  2
VIEWPORTS
 70
0
 62
7
  6
CONTINUOUS
  0
ENDTAB
  0
TABLE
  2
STYLE
 70
12
  0
STYLE
  2
STANDARD
 70
0
 40
0.0
 41
1.0
 42
1.0
 50
0.0
 71
0
  3
arial.ttf
  4

  0
STYLE
  2
ARIAL
 70
0
 40
0.0
 41
1.0
 42
1.0
 50
0.0
 71
0
  3
arial.ttf
  4

  0
STYLE
  2
ARIAL_BOLD
 70
0
 40
0.0
 41
1.0
 42
1.0
 50
0.0
 71
0
  3
arialbd.ttf
  4

  0
STYLE
  2
ARIAL_ITALIC
 70
0
 40
0.0
 41
1.0
 42
1.0
 50
0.0
 71
0
  3
ariali.ttf
  4

  0
STYLE
  2
ARIAL_BOLD_ITALIC
 70
0
 40
0.0
 41
1.0
 42
1.0
 50
0.0
 71
0
  3
arialbi.ttf
  4

  0
STYLE
  2
ARIAL_BLACK
 70
0
 40
0.0
 41
1.0
 42
1.0
 50
0.0
 71
0
  3
ariblk.ttf
  4

  0
STYLE
  2
ISOCPEUR
 70
0
 40
0.0
 41
1.0
 42
1.0
 50
0.0
 71
0
  3
isocpeur.ttf
  4

  0
STYLE
  2
ISOCPEUR_ITALIC
 70
0
 40
0.0
 41
1.0
 42
1.0
 50
0.0
 71
0
  3
isocpeui.ttf
  4

  0
STYLE
  2
TIMES
 70
0
 40
0.0
 41
1.0
 42
1.0
 50
0.0
 71
0
  3
times.ttf
  4

  0
STYLE
  2
TIMES_BOLD
 70
0
 40
0.0
 41
1.0
 42
1.0
 50
0.0
 71
0
  3
timesbd.ttf
  4

  0
STYLE
  2
TIMES_ITALIC
 70
0
 40
0.0
 41
1.0
 42
1.0
 50
0.0
 71
0
  3
timesi.ttf
  4

  0
STYLE
  2
TIMES_BOLD_ITALIC
 70
0
 40
0.0
 41
1.0
 42
1.0
 50
0.0
 71
0
  3
timesbi.ttf
  4

  0
ENDTAB
  0
TABLE
  2
VIEW
 70
0
  0
ENDTAB
  0
TABLE
  2
APPID
 70
1
  0
APPID
  2
DXFWRITE
 70
0
  0
ENDTAB
  0
TABLE
  2
VPORT
 70
0
  0
ENDTAB
  0
TABLE
  2
UCS
 70
0
  0
ENDTAB
  0
ENDSEC
  0
SECTION
  2
BLOCKS
  0
ENDSEC
  0
SECTION
  2
ENTITIES
  0
VIEWPORT
  8
VIEWPORTS
 67
1
 10
0.0
 20
0.0
 30
0.0
 40
1.0
 41
1.0
 68
1
 69
1
1001
ACAD
1000
MVIEW
1002
{
1070
16
1010
0.0
1020
0.0
1030
0.0
1010
0.0
1020
0.0
1030
0.0
1040
0.0
1040
1.0
1040
0.0
1040
0.0
1040
50.0
1040
0.0
1040
0.0
1070
0
1070
100
1070
1
1070
3
1070
0
1070
0
1070
0
1070
0
1040
0.0
1040
0.0
1040
0.0
1040
0.1
1040
0.1
1040
0.1
1040
0.1
1070
0
1002
{
1002
}
1002
}
  0
POLYLINE
  8
0
 66
1
 10
0.0
 20
0.0
 30
0.0
 70
9
  0
VERTEX
  8
0
 10
0.0
 20
0.0
 30
0.0
  0
VERTEX
  8
0
 10
1.0
 20
1.0
 30
0.0
  0
VERTEX
  8
0
 10
2.0
 20
2.0
 30
0.0
  0
VERTEX
  8
0
 10
2.0
 20
4.0
 30
0.0
  0
VERTEX
  8
0
 10
0.0
 20
8.0
 30
0.0
  0
VERTEX
  8
0
 10
5.0
 20
6.0
 30
0.0
  0
VERTEX
  8
0
 10
3.0
 20
3.0
 30
0.0
  0
VERTEX
  8
0
 10
4.0
 20
0.0
 30
0.0
  0
VERTEX
  8
0
 10
0.0
 20
0.0
 30
0.0
  0
SEQEND
  0
POLYLINE
  8
0
 66
1
 10
0.0
 20
0.0
 30
0.0
 70
9
  0
VERTEX
  8
0
 10
3.25
 20
7.3500000000000005
 30
0.0
  0
VERTEX
  8
0
 10
3.6
 20
7.7
 30
0.0
  0
VERTEX
  8
0
 10
3.95
 20
8.05
 30
0.0
  0
VERTEX
  8
0
 10
3.95
 20
8.75
 30
0.0
  0
VERTEX
  8
0
 10
3.25
 20
10.149999999999999
 30
0.0
  0
VERTEX
  8
0
 10
5.0
 20
9.45
 30
0.0
  0
VERTEX
  8
0
 10
4.3
 20
8.399999999999999
 30
0.0
  0
VERTEX
  8
0
 10
4.65
 20
7.3500000000000005
 30
0.0
  0
VERTEX
  8
0
 10
3.25
 20
7.3500000000000005
 30
0.0
  0
SEQEND
  0
POLYLINE
  8
0
 66
1
 10
0.0
 20
0.0
 30
0.0
 70
9
  0
VERTEX
  8
0
 10
4.875
 20
7.3500000000000005
 30
0.0
  0
VERTEX
  8
0
 10
5.225
 20
7.7
 30
0.0
  0
VERTEX
  8
0
 10
5.575
 20
8.05
 30
0.0
  0
VERTEX
  8
0
 10
5.575
 20
8.75
 30
0.0
  0
VERTEX
  8
0
 10
4.875
 20
10.149999999999999
 30
0.0
  0
VERTEX
  8
0
 10
6.625
 20
9.45
 30
0.0
  0
VERTEX
  8
0
 10
5.925
 20
8.399999999999999
 30
0.0
  0
VERTEX
  8
0
 10
6.275
 20
7.3500000000000005
 30
0.0
  0
VERTEX
  8
0
 10
4.875
 20
7.3500000000000005
 30
0.0
  0
SEQEND
  0
POLYLINE
  8
0
 66
1
 10
0.0
 20
0.0
 30
0.0
 70
9
  0
VERTEX
  8
0
 10
6.5
 20
7.3500000000000005
 30
0.0
  0
VERTEX
  8
0
 10
6.85
 20
7.7
 30
0.0
  0
VERTEX
  8
0
 10
7.2
 20
8.05
 30
0.0
  0
VERTEX
  8
0
 10
7.2
 20
8.75
 30
0.0
  0
VERTEX
  8
0
 10
6.5
 20
10.149999999999999
 30
0.0
  0
VERTEX
  8
0
 10
8.25
 20
9.45
 30
0.0
  0
VERTEX
  8
0
 10
7.550000000000001
 20
8.399999999999999
 30
0.0
  0
VERTEX
  8
0
 10
7.9
 20
7.3500000000000005
 30
0.0
  0
VERTEX
  8
0
 10
6.5
 20
7.3500000000000005
 30
0.0
  0
SEQEND
  0
POLYLINE
  8
0
 66
1
 10
0.0
 20
0.0
 30
0.0
 70
9
  0
VERTEX
  8
0
 10
7.6375
 20
9.922499999999998
 30
0.0
  0
VERTEX
  8
0
 10
7.76
 20
10.044999999999998
 30
0.0
  0
VERTEX
  8
0
 10
7.8825
 20
10.167499999999999
 30
0.0
  0
VERTEX
  8
0
 10
7.8825
 20
10.412499999999998
 30
0.0
  0
VERTEX
  8
0
 10
7.6375
 20
10.902499999999998
 30
0.0
  0
VERTEX
  8
0
 10
8.25
 20
10.657499999999997
 30
0.0
  0
VERTEX
  8
0
 10
8.005
 20
10.289999999999997
 30
0.0
  0
VERTEX
  8
0
 10
8.1275
 20
9.922499999999998
 30
0.0
  0
VERTEX
  8
0
 10
7.6375
 20
9.922499999999998
 30
0.0
  0
SEQEND
  0
POLYLINE
  8
0
 66
1
 10
0.0
 20
0.0
 30
0.0
 70
9
  0
VERTEX
  8
0
 10
8.20625
 20
9.922499999999998
 30
0.0
  0
VERTEX
  8
0
 10
8.32875
 20
10.044999999999998
 30
0.0
  0
VERTEX
  8
0
 10
8.45125
 20
10.167499999999999
 30
0.0
  0
VERTEX
  8
0
 10
8.45125
 20
10.412499999999998
 30
0.0
  0
VERTEX
  8
0
 10
8.20625
 20
10.902499999999998
 30
0.0
  0
VERTEX
  8
0
 10
8.81875
 20
10.657499999999997
 30
0.0
  0
VERTEX
  8
0
 10
8.57375
 20
10.289999999999997
 30
0.0
  0
VERTEX
  8
0
 10
8.696250000000001
 20
9.922499999999998
 30
0.0
  0
VERTEX
  8
0
 10
8.20625
 20
9.922499999999998
 30
0.0
  0
SEQEND
  0
POLYLINE
  8
0
 66
1
 10
0.0
 20
0.0
 30
0.0
 70
9
  0
VERTEX
  8
0
 10
8.775
 20
9.922499999999998
 30
0.0
  0
VERTEX
  8
0
 10
8.8975
 20
10.044999999999998
 30
0.0
  0
VERTEX
  8
0
 10
9.02
 20
10.167499999999999
 30
0.0
  0
VERTEX
  8
0
 10
9.02
 20
10.412499999999998
 30
0.0
  0
VERTEX
  8
0
 10
8.775
 20
10.902499999999998
 30
0.0
  0
VERTEX
  8
0
 10
9.3875
 20
10.657499999999997
 30
0.0
  0
VERTEX
  8
0
 10
9.1425
 20
10.289999999999997
 30
0.0
  0
VERTEX
  8
0
 10
9.265
 20
9.922499999999998
 30
0.0
  0
VERTEX
  8
0
 10
8.775
 20
9.922499999999998
 30
0.0
  0
SEQEND
  0
POLYLINE
  8
0
 66
1
 10
0.0
 20
0.0
 30
0.0
 70
9
  0
VERTEX
  8
0
 10
6.0125
 20
9.922499999999998
 30
0.0
  0
VERTEX
  8
0
 10
6.135
 20
10.044999999999998
 30
0.0
  0
VERTEX
  8
0
 10
6.2575
 20
10.167499999999999
 30
0.0
  0
VERTEX
  8
0
 10
6.2575
 20
10.412499999999998
 30
0.0
  0
VERTEX
  8
0
 10
6.0125
 20
10.902499999999998
 30
0.0
  0
VERTEX
  8
0
 10
6.625
 20
10.657499999999997
 30
0.0
  0
VERTEX
  8
0
 10
6.38
 20
10.289999999999997
 30
0.0
  0
VERTEX
  8
0
 10
6.5025
 20
9.922499999999998
 30
0.0
  0
VERTEX
  8
0
 10
6.0125
 20
9.922499999999998
 30
0.0
  0
SEQEND
  0
POLYLINE
  8
0
 66
1
 10
0.0
 20
0.0
 30
0.0
 70
9
  0
VERTEX
  8
0
 10
6.58125
 20
9.922499999999998
 30
0.0
  0
VERTEX
  8
0
 10
6.703749999999999
 20
10.044999999999998
 30
0.0
  0
VERTEX
  8
0
 10
6.82625
 20
10.167499999999999
 30
0.0
  0
VERTEX
  8
0
 10
6.82625
 20
10.412499999999998
 30
0.0
  0
VERTEX
  8
0
 10
6.58125
 20
10.902499999999998
 30
0.0
  0
VERTEX
  8
0
 10
7.19375
 20
10.657499999999997
 30
0.0
  0
VERTEX
  8
0
 10
6.94875
 20
10.289999999999997
 30
0.0
  0
VERTEX
  8
0
 10
7.07125
 20
9.922499999999998
 30
0.0
  0
VERTEX
  8
0
 10
6.58125
 20
9.922499999999998
 30
0.0
  0
SEQEND
  0
POLYLINE
  8
0
 66
1
 10
0.0
 20
0.0
 30
0.0
 70
9
  0
VERTEX
  8
0
 10
7.15
 20
9.922499999999998
 30
0.0
  0
VERTEX
  8
0
 10
7.2725
 20
10.044999999999998
 30
0.0
  0
VERTEX
  8
0
 10
7.3950000000000005
 20
10.167499999999999
 30
0.0
  0
VERTEX
  8
0
 10
7.3950000000000005
 20
10.412499999999998
 30
0.0
  0
VERTEX
  8
0
 10
7.15
 20
10.902499999999998
 30
0.0
  0
VERTEX
  8
0
 10
7.7625
 20
10.657499999999997
 30
0.0
  0
VERTEX
  8
0
 10
7.5175
 20
10.289999999999997
 30
0.0
  0
VERTEX
  8
0
 10
7.640000000000001
 20
9.922499999999998
 30
0.0
  0
VERTEX
  8
0
 10
7.15
 20
9.922499999999998
 30
0.0
  0
SEQEND
  0
POLYLINE
  8
0
 66
1
 10
0.0
 20
0.0
 30
0.0
 70
9
  0
VERTEX
  8
0
 10
4.3875
 20
9.922499999999998
 30
0.0
  0
VERTEX
  8
0
 10
4.51
 20
10.044999999999998
 30
0.0
  0
VERTEX
  8
0
 10
4.6325
 20
10.167499999999999
 30
0.0
  0
VERTEX
  8
0
 10
4.6325
 20
10.412499999999998
 30
0.0
  0
VERTEX
  8
0
 10
4.3875
 20
10.902499999999998
 30
0.0
  0
VERTEX
  8
0
 10
5.0
 20
10.657499999999997
 30
0.0
  0
VERTEX
  8
0
 10
4.755
 20
10.289999999999997
 30
0.0
  0
VERTEX
  8
0
 10
4.8775
 20
9.922499999999998
 30
0.0
  0
VERTEX
  8
0
 10
4.3875
 20
9.922499999999998
 30
0.0
  0
SEQEND
  0
POLYLINE
  8
0
 66
1
 10
0.0
 20
0.0
 30
0.0
 70
9
  0
VERTEX
  8
0
 10
4.95625
 20
9.922499999999998
 30
0.0
  0
VERTEX
  8
0
 10
5.07875
 20
10.044999999999998
 30
0.0
  0
VERTEX
  8
0
 10
5.20125
 20
10.167499999999999
 30
0.0
  0
VERTEX
  8
0
 10
5.20125
 20
10.412499999999998
 30
0.0
  0
VERTEX
  8
0
 10
4.95625
 20
10.902499999999998
 30
0.0
  0
VERTEX
  8
0
 10
5.56875
 20
10.657499999999997
 30
0.0
  0
VERTEX
  8
0
 10
5.32375
 20
10.289999999999997
 30
0.0
  0
VERTEX
  8
0
 10
5.44625
 20
9.922499999999998
 30
0.0
  0
VERTEX
  8
0
 10
4.95625
 20
9.922499999999998
 30
0.0
  0
SEQEND
  0
POLYLINE
  8
0
 66
1
 10
0.0
 20
0.0
 30
0.0
 70
9
  0
VERTEX
  8
0
 10
5.525
 20
9.922499999999998
 30
0.0
  0
VERTEX
  8
0
 10
5.6475
 20
10.044999999999998
 30
0.0
  0
VERTEX
  8
0
 10
5.7700000000000005
 20
10.167499999999999
 30
0.0
  0
VERTEX
  8
0
 10
5.7700000000000005
 20
10.412499999999998
 30
0.0
  0
VERTEX
  8
0
 10
5.525
 20
10.902499999999998
 30
0.0
  0
VERTEX
  8
0
 10
6.1375
 20
10.657499999999997
 30
0.0
  0
VERTEX
  8
0
 10
5.8925
 20
10.289999999999997
 30
0.0
  0
VERTEX
  8
0
 10
6.015000000000001
 20
9.922499999999998
 30
0.0
  0
VERTEX
  8
0
 10
5.525
 20
9.922499999999998
 30
0.0
  0
SEQEND
  0
POLYLINE
  8
0
 66
1
 10
0.0
 20
0.0
 30
0.0
 70
9
  0
VERTEX
  8
0
 10
0.0
 20
0.0
 30
0.0
  0
VERTEX
  8
0
 10
-0.6420395219202061
 20
1.260073510670101
 30
0.0
  0
VERTEX
  8
0
 10
-1.2840790438404122
 20
2.520147021340202
 30
0.0
  0
VERTEX
  8
0
 10
-3.1861920764307192
 20
3.138181010090097
 30
0.0
  0
VERTEX
  8
0
 10
-7.608452130361228
 20
2.4721359549995796
 30
0.0
  0
VERTEX
  8
0
 10
-4.161254125896184
 20
6.609384547725452
 30
0.0
  0
VERTEX
  8
0
 10
-1.9261185657606181
 20
3.780220532010303
 30
0.0
  0
VERTEX
  8
0
 10
1.2360679774997898
 20
3.804226065180614
 30
0.0
  0
VERTEX
  8
0
 10
0.0
 20
0.0
 30
0.0
  0
SEQEND
  0
POLYLINE
  8
0
 66
1
 10
0.0
 20
0.0
 30
0.0
 70
9
  0
VERTEX
  8
0
 10
-5.9859601630508
 20
5.362208586615113
 30
0.0
  0
VERTEX
  8
0
 10
-6.210673995722871
 20
5.803234315349648
 30
0.0
  0
VERTEX
  8
0
 10
-6.435387828394944
 20
6.244260044084184
 30
0.0
  0
VERTEX
  8
0
 10
-7.10112738980155
 20
6.460571940146647
 30
0.0
  0
VERTEX
  8
0
 10
-8.648918408677227
 20
6.227456170864965
 30
0.0
  0
VERTEX
  8
0
 10
-7.442399107114462
 20
7.67549317831902
 30
0.0
  0
VERTEX
  8
0
 10
-6.6601016610670145
 20
6.685285772818718
 30
0.0
  0
VERTEX
  8
0
 10
-5.553336370925873
 20
6.693687709428328
 30
0.0
  0
VERTEX
  8
0
 10
-5.9859601630508
 20
5.362208586615113
 30
0.0
  0
SEQEND
  0
POLYLINE
  8
0
 66
1
 10
0.0
 20
0.0
 30
0.0
 70
9
  0
VERTEX
  8
0
 10
-5.48380754719151
 20
6.9076754255947375
 30
0.0
  0
VERTEX
  8
0
 10
-5.708521379863582
 20
7.348701154329272
 30
0.0
  0
VERTEX
  8
0
 10
-5.933235212535655
 20
7.789726883063809
 30
0.0
  0
VERTEX
  8
0
 10
-6.598974773942261
 20
8.006038779126271
 30
0.0
  0
VERTEX
  8
0
 10
-8.146765792817938
 20
7.77292300984459
 30
0.0
  0
VERTEX
  8
0
 10
-6.940246491255173
 20
9.220960017298644
 30
0.0
  0
VERTEX
  8
0
 10
-6.157949045207725
 20
8.230752611798342
 30
0.0
  0
VERTEX
  8
0
 10
-5.0511837550665835
 20
8.239154548407953
 30
0.0
  0
VERTEX
  8
0
 10
-5.48380754719151
 20
6.9076754255947375
 30
0.0
  0
SEQEND
  0
POLYLINE
  8
0
 66
1
 10
0.0
 20
0.0
 30
0.0
 70
9
  0
VERTEX
  8
0
 10
-4.981654931332221
 20
8.453142264574362
 30
0.0
  0
VERTEX
  8
0
 10
-5.206368764004292
 20
8.894167993308898
 30
0.0
  0
VERTEX
  8
0
 10
-5.431082596676365
 20
9.335193722043433
 30
0.0
  0
VERTEX
  8
0
 10
-6.09682215808297
 20
9.551505618105896
 30
0.0
  0
VERTEX
  8
0
 10
-7.644613176958648
 20
9.318389848824214
 30
0.0
  0
VERTEX
  8
0
 10
-6.438093875395883
 20
10.766426856278269
 30
0.0
  0
VERTEX
  8
0
 10
-5.655796429348435
 20
9.776219450777969
 30
0.0
  0
VERTEX
  8
0
 10
-4.549031139207294
 20
9.784621387387578
 30
0.0
  0
VERTEX
  8
0
 10
-4.981654931332221
 20
8.453142264574362
 30
0.0
  0
SEQEND
  0
POLYLINE
  8
0
 66
1
 10
0.0
 20
0.0
 30
0.0
 70
9
  0
VERTEX
  8
0
 10
-7.076740988399997
 20
10.32991526988965
 30
0.0
  0
VERTEX
  8
0
 10
-7.155390829835223
 20
10.484274274946738
 30
0.0
  0
VERTEX
  8
0
 10
-7.234040671270449
 20
10.638633280003825
 30
0.0
  0
VERTEX
  8
0
 10
-7.46704951776276
 20
10.714342443625688
 30
0.0
  0
VERTEX
  8
0
 10
-8.00877637436925
 20
10.6327519243771
 30
0.0
  0
VERTEX
  8
0
 10
-7.58649461882228
 20
11.139564876986018
 30
0.0
  0
VERTEX
  8
0
 10
-7.312690512705673
 20
10.792992285060913
 30
0.0
  0
VERTEX
  8
0
 10
-6.925322661156272
 20
10.795932962874275
 30
0.0
  0
VERTEX
  8
0
 10
-7.076740988399997
 20
10.32991526988965
 30
0.0
  0
SEQEND
  0
POLYLINE
  8
0
 66
1
 10
0.0
 20
0.0
 30
0.0
 70
9
  0
VERTEX
  8
0
 10
-6.900987572849246
 20
10.87082866353252
 30
0.0
  0
VERTEX
  8
0
 10
-6.979637414284472
 20
11.025187668589606
 30
0.0
  0
VERTEX
  8
0
 10
-7.058287255719698
 20
11.179546673646694
 30
0.0
  0
VERTEX
  8
0
 10
-7.291296102212009
 20
11.255255837268557
 30
0.0
  0
VERTEX
  8
0
 10
-7.833022958818498
 20
11.173665318019967
 30
0.0
  0
VERTEX
  8
0
 10
-7.410741203271528
 20
11.680478270628885
 30
0.0
  0
VERTEX
  8
0
 10
-7.136937097154922
 20
11.33390567870378
 30
0.0
  0
VERTEX
  8
0
 10
-6.749569245605521
 20
11.336846356517146
 30
0.0
  0
VERTEX
  8
0
 10
-6.900987572849246
 20
10.87082866353252
 30
0.0
  0
SEQEND
  0
POLYLINE
  8
0
 66
1
 10
0.0
 20
0.0
 30
0.0
 70
9
  0
VERTEX
  8
0
 10
-6.725234157298495
 20
11.411742057175388
 30
0.0
  0
VERTEX
  8
0
 10
-6.8038839987337205
 20
11.566101062232475
 30
0.0
  0
VERTEX
  8
0
 10
-6.882533840168946
 20
11.720460067289562
 30
0.0
  0
VERTEX
  8
0
 10
-7.115542686661257
 20
11.796169230911424
 30
0.0
  0
VERTEX
  8
0
 10
-7.657269543267747
 20
11.714578711662835
 30
0.0
  0
VERTEX
  8
0
 10
-7.234987787720777
 20
12.221391664271753
 30
0.0
  0
VERTEX
  8
0
 10
-6.961183681604171
 20
11.87481907234665
 30
0.0
  0
VERTEX
  8
0
 10
-6.5738158300547695
 20
11.877759750160013
 30
0.0
  0
VERTEX
  8
0
 10
-6.725234157298495
 20
11.411742057175388
 30
0.0
  0
SEQEND
  0
POLYLINE
  8
0
 66
1
 10
0.0
 20
0.0
 30
0.0
 70
9
  0
VERTEX
  8
0
 10
-7.578893604259287
 20
8.784448430910025
 30
0.0
  0
VERTEX
  8
0
 10
-7.657543445694513
 20
8.938807435967114
 30
0.0
  0
VERTEX
  8
0
 10
-7.736193287129739
 20
9.0931664410242
 30
0.0
  0
VERTEX
  8
0
 10
-7.9692021336220495
 20
9.168875604646063
 30
0.0
  0
VERTEX
  8
0
 10
-8.510928990228539
 20
9.087285085397475
 30
0.0
  0
VERTEX
  8
0
 10
-8.08864723468157
 20
9.594098038006393
 30
0.0
  0
VERTEX
  8
0
 10
-7.814843128564963
 20
9.247525446081287
 30
0.0
  0
VERTEX
  8
0
 10
-7.427475277015562
 20
9.250466123894652
 30
0.0
  0
VERTEX
  8
0
 10
-7.578893604259287
 20
8.784448430910025
 30
0.0
  0
SEQEND
  0
POLYLINE
  8
0
 66
1
 10
0.0
 20
0.0
 30
0.0
 70
9
  0
VERTEX
  8
0
 10
-7.4031401887085355
 20
9.325361824552894
 30
0.0
  0
VERTEX
  8
0
 10
-7.481790030143761
 20
9.479720829609981
 30
0.0
  0
VERTEX
  8
0
 10
-7.560439871578987
 20
9.63407983466707
 30
0.0
  0
VERTEX
  8
0
 10
-7.793448718071298
 20
9.709788998288932
 30
0.0
  0
VERTEX
  8
0
 10
-8.335175574677788
 20
9.628198479040343
 30
0.0
  0
VERTEX
  8
0
 10
-7.912893819130818
 20
10.13501143164926
 30
0.0
  0
VERTEX
  8
0
 10
-7.6390897130142115
 20
9.788438839724158
 30
0.0
  0
VERTEX
  8
0
 10
-7.2517218614648105
 20
9.791379517537521
 30
0.0
  0
VERTEX
  8
0
 10
-7.4031401887085355
 20
9.325361824552894
 30
0.0
  0
SEQEND
  0
POLYLINE
  8
0
 66
1
 10
0.0
 20
0.0
 30
0.0
 70
9
  0
VERTEX
  8
0
 10
-7.227386773157784
 20
9.866275218195764
 30
0.0
  0
VERTEX
  8
0
 10
-7.30603661459301
 20
10.02063422325285
 30
0.0
  0
VERTEX
  8
0
 10
-7.384686456028236
 20
10.174993228309939
 30
0.0
  0
VERTEX
  8
0
 10
-7.617695302520547
 20
10.2507023919318
 30
0.0
  0
VERTEX
  8
0
 10
-8.159422159127036
 20
10.169111872683212
 30
0.0
  0
VERTEX
  8
0
 10
-7.737140403580066
 20
10.675924825292132
 30
0.0
  0
VERTEX
  8
0
 10
-7.46333629746346
 20
10.329352233367025
 30
0.0
  0
VERTEX
  8
0
 10
-7.075968445914059
 20
10.332292911180389
 30
0.0
  0
VERTEX
  8
0
 10
-7.227386773157784
 20
9.866275218195764
 30
0.0
  0
SEQEND
  0
POLYLINE
  8
0
 66
1
 10
0.0
 20
0.0
 30
0.0
 70
9
  0
VERTEX
  8
0
 10
-8.081046220118576
 20
7.2389815919304015
 30
0.0
  0
VERTEX
  8
0
 10
-8.159696061553802
 20
7.393340596987489
 30
0.0
  0
VERTEX
  8
0
 10
-8.238345902989028
 20
7.5476996020445775
 30
0.0
  0
VERTEX
  8
0
 10
-8.471354749481339
 20
7.623408765666439
 30
0.0
  0
VERTEX
  8
0
 10
-9.013081606087828
 20
7.54181824641785
 30
0.0
  0
VERTEX
  8
0
 10
-8.590799850540858
 20
8.048631199026769
 30
0.0
  0
VERTEX
  8
0
 10
-8.316995744424252
 20
7.702058607101663
 30
0.0
  0
VERTEX
  8
0
 10
-7.929627892874852
 20
7.7049992849150275
 30
0.0
  0
VERTEX
  8
0
 10
-8.081046220118576
 20
7.2389815919304015
 30
0.0
  0
SEQEND
  0
POLYLINE
  8
0
 66
1
 10
0.0
 20
0.0
 30
0.0
 70
9
  0
VERTEX
  8
0
 10
-7.905292804567825
 20
7.77989498557327
 30
0.0
  0
VERTEX
  8
0
 10
-7.983942646003051
 20
7.934253990630358
 30
0.0
  0
VERTEX
  8
0
 10
-8.062592487438277
 20
8.088612995687445
 30
0.0
  0
VERTEX
  8
0
 10
-8.295601333930588
 20
8.164322159309307
 30
0.0
  0
VERTEX
  8
0
 10
-8.837328190537077
 20
8.082731640060718
 30
0.0
  0
VERTEX
  8
0
 10
-8.415046434990108
 20
8.589544592669636
 30
0.0
  0
VERTEX
  8
0
 10
-8.141242328873501
 20
8.242972000744533
 30
0.0
  0
VERTEX
  8
0
 10
-7.753874477324101
 20
8.245912678557897
 30
0.0
  0
VERTEX
  8
0
 10
-7.905292804567825
 20
7.77989498557327
 30
0.0
  0
SEQEND
  0
POLYLINE
  8
0
 66
1
 10
0.0
 20
0.0
 30
0.0
 70
9
  0
VERTEX
  8
0
 10
-7.729539389017074
 20
8.320808379216139
 30
0.0
  0
VERTEX
  8
0
 10
-7.8081892304522995
 20
8.475167384273226
 30
0.0
  0
VERTEX
  8
0
 10
-7.886839071887525
 20
8.629526389330314
 30
0.0
  0
VERTEX
  8
0
 10
-8.119847918379836
 20
8.705235552952175
 30
0.0
  0
VERTEX
  8
0
 10
-8.661574774986326
 20
8.623645033703587
 30
0.0
  0
VERTEX
  8
0
 10
-8.239293019439355
 20
9.130457986312507
 30
0.0
  0
VERTEX
  8
0
 10
-7.96548891332275
 20
8.7838853943874
 30
0.0
  0
VERTEX
  8
0
 10
-7.578121061773349
 20
8.786826072200764
 30
0.0
  0
VERTEX
  8
0
 10
-7.729539389017074
 20
8.320808379216139
 30
0.0
  0
SEQEND
  0
POLYLINE
  8
0
 66
1
 10
0.0
 20
0.0
 30
0.0
 70
9
  0
VERTEX
  8
0
 10
0.0
 20
0.0
 30
0.0
  0
VERTEX
  8
0
 10
-1.3968022466674206
 20
-0.2212317420824741
 30
0.0
  0
VERTEX
  8
0
 10
-2.793604493334841
 20
-0.4424634841649482
 30
0.0
  0
VERTEX
  8
0
 10
-3.9691749979197875
 20
-2.060497472914843
 30
0.0
  0
VERTEX
  8
0
 10
-4.702282018339786
 20
-6.472135954999579
 30
0.0
  0
VERTEX
  8
0
 10
-7.571796485629576
 20
-1.9151757047873175
 30
0.0
  0
VERTEX
  8
0
 10
-4.1904067400022615
 20
-0.6636952262474223
 30
0.0
  0
VERTEX
  8
0
 10
-3.2360679774997894
 20
2.351141009169893
 30
0.0
  0
VERTEX
  8
0
 10
0.0
 20
0.0
 30
0.0
  0
SEQEND
  0
POLYLINE
  8
0
 66
1
 10
0.0
 20
0.0
 30
0.0
 70
9
  0
VERTEX
  8
0
 10
-6.949526836068258
 20
-4.035972838705325
 30
0.0
  0
VERTEX
  8
0
 10
-7.438407622401854
 20
-4.113403948434191
 30
0.0
  0
VERTEX
  8
0
 10
-7.9272884087354525
 20
-4.1908350581630565
 30
0.0
  0
VERTEX
  8
0
 10
-8.338738085340182
 20
-4.7571469542255205
 30
0.0
  0
VERTEX
  8
0
 10
-8.595325542487181
 20
-6.301220422955177
 30
0.0
  0
VERTEX
  8
0
 10
-9.599655606038608
 20
-4.706284335380886
 30
0.0
  0
VERTEX
  8
0
 10
-8.416169195069049
 20
-4.268266167891921
 30
0.0
  0
VERTEX
  8
0
 10
-8.082150628193183
 20
-3.2130734854958622
 30
0.0
  0
VERTEX
  8
0
 10
-6.949526836068258
 20
-4.035972838705325
 30
0.0
  0
SEQEND
  0
POLYLINE
  8
0
 66
1
 10
0.0
 20
0.0
 30
0.0
 70
9
  0
VERTEX
  8
0
 10
-8.264179451927546
 20
-3.080821803730056
 30
0.0
  0
VERTEX
  8
0
 10
-8.753060238261144
 20
-3.158252913458922
 30
0.0
  0
VERTEX
  8
0
 10
-9.241941024594741
 20
-3.235684023187788
 30
0.0
  0
VERTEX
  8
0
 10
-9.653390701199474
 20
-3.8019959192502513
 30
0.0
  0
VERTEX
  8
0
 10
-9.90997815834647
 20
-5.346069387979908
 30
0.0
  0
VERTEX
  8
0
 10
-10.914308221897898
 20
-3.7511333004056167
 30
0.0
  0
VERTEX
  8
0
 10
-9.730821810928337
 20
-3.3131151329166526
 30
0.0
  0
VERTEX
  8
0
 10
-9.396803244052474
 20
-2.2579224505205935
 30
0.0
  0
VERTEX
  8
0
 10
-8.264179451927546
 20
-3.080821803730056
 30
0.0
  0
SEQEND
  0
POLYLINE
  8
0
 66
1
 10
0.0
 20
0.0
 30
0.0
 70
9
  0
VERTEX
  8
0
 10
-9.578832067786838
 20
-2.1256707687547873
 30
0.0
  0
VERTEX
  8
0
 10
-10.067712854120433
 20
-2.203101878483653
 30
0.0
  0
VERTEX
  8
0
 10
-10.556593640454032
 20
-2.280532988212519
 30
0.0
  0
VERTEX
  8
0
 10
-10.968043317058761
 20
-2.846844884274982
 30
0.0
  0
VERTEX
  8
0
 10
-11.22463077420576
 20
-4.390918353004639
 30
0.0
  0
VERTEX
  8
0
 10
-12.228960837757187
 20
-2.7959822654303474
 30
0.0
  0
VERTEX
  8
0
 10
-11.045474426787628
 20
-2.357964097941383
 30
0.0
  0
VERTEX
  8
0
 10
-10.711455859911762
 20
-1.3027714155453243
 30
0.0
  0
VERTEX
  8
0
 10
-9.578832067786838
 20
-2.1256707687547873
 30
0.0
  0
SEQEND
  0
POLYLINE
  8
0
 66
1
 10
0.0
 20
0.0
 30
0.0
 70
9
  0
VERTEX
  8
0
 10
-12.011166460410724
 20
-3.5382612623016483
 30
0.0
  0
VERTEX
  8
0
 10
-12.182274735627484
 20
-3.5653621507067523
 30
0.0
  0
VERTEX
  8
0
 10
-12.353383010844244
 20
-3.5924630391118555
 30
0.0
  0
VERTEX
  8
0
 10
-12.497390397655899
 20
-3.7906722027337167
 30
0.0
  0
VERTEX
  8
0
 10
-12.587196007657349
 20
-4.331097916789097
 30
0.0
  0
VERTEX
  8
0
 10
-12.938711529900347
 20
-3.772870286138094
 30
0.0
  0
VERTEX
  8
0
 10
-12.524491286061004
 20
-3.6195639275169578
 30
0.0
  0
VERTEX
  8
0
 10
-12.407584787654448
 20
-3.2502464886783367
 30
0.0
  0
VERTEX
  8
0
 10
-12.011166460410724
 20
-3.5382612623016483
 30
0.0
  0
SEQEND
  0
POLYLINE
  8
0
 66
1
 10
0.0
 20
0.0
 30
0.0
 70
9
  0
VERTEX
  8
0
 10
-12.471294875961476
 20
-3.203958400060303
 30
0.0
  0
VERTEX
  8
0
 10
-12.642403151178236
 20
-3.231059288465409
 30
0.0
  0
VERTEX
  8
0
 10
-12.813511426394996
 20
-3.2581601768705113
 30
0.0
  0
VERTEX
  8
0
 10
-12.95751881320665
 20
-3.4563693404923725
 30
0.0
  0
VERTEX
  8
0
 10
-13.047324423208101
 20
-3.9967950545477517
 30
0.0
  0
VERTEX
  8
0
 10
-13.398839945451098
 20
-3.4385674238967496
 30
0.0
  0
VERTEX
  8
0
 10
-12.984619701611754
 20
-3.2852610652756136
 30
0.0
  0
VERTEX
  8
0
 10
-12.867713203205202
 20
-2.9159436264369916
 30
0.0
  0
VERTEX
  8
0
 10
-12.471294875961476
 20
-3.203958400060303
 30
0.0
  0
SEQEND
  0
POLYLINE
  8
0
 66
1
 10
0.0
 20
0.0
 30
0.0
 70
9
  0
VERTEX
  8
0
 10
-12.931423291512228
 20
-2.86965553781896
 30
0.0
  0
VERTEX
  8
0
 10
-13.102531566728988
 20
-2.896756426224064
 30
0.0
  0
VERTEX
  8
0
 10
-13.273639841945746
 20
-2.923857314629167
 30
0.0
  0
VERTEX
  8
0
 10
-13.417647228757401
 20
-3.1220664782510283
 30
0.0
  0
VERTEX
  8
0
 10
-13.507452838758851
 20
-3.6624921923064084
 30
0.0
  0
VERTEX
  8
0
 10
-13.85896836100185
 20
-3.1042645616554063
 30
0.0
  0
VERTEX
  8
0
 10
-13.444748117162504
 20
-2.9509582030342694
 30
0.0
  0
VERTEX
  8
0
 10
-13.32784161875595
 20
-2.5816407641956474
 30
0.0
  0
VERTEX
  8
0
 10
-12.931423291512228
 20
-2.86965553781896
 30
0.0
  0
SEQEND
  0
POLYLINE
  8
0
 66
1
 10
0.0
 20
0.0
 30
0.0
 70
9
  0
VERTEX
  8
0
 10
-10.696513844551436
 20
-4.493412297276917
 30
0.0
  0
VERTEX
  8
0
 10
-10.867622119768194
 20
-4.520513185682022
 30
0.0
  0
VERTEX
  8
0
 10
-11.038730394984954
 20
-4.547614074087124
 30
0.0
  0
VERTEX
  8
0
 10
-11.18273778179661
 20
-4.7458232377089855
 30
0.0
  0
VERTEX
  8
0
 10
-11.27254339179806
 20
-5.286248951764366
 30
0.0
  0
VERTEX
  8
0
 10
-11.624058914041058
 20
-4.7280213211133635
 30
0.0
  0
VERTEX
  8
0
 10
-11.209838670201712
 20
-4.5747149624922265
 30
0.0
  0
VERTEX
  8
0
 10
-11.092932171795159
 20
-4.205397523653605
 30
0.0
  0
VERTEX
  8
0
 10
-10.696513844551436
 20
-4.493412297276917
 30
0.0
  0
SEQEND
  0
POLYLINE
  8
0
 66
1
 10
0.0
 20
0.0
 30
0.0
 70
9
  0
VERTEX
  8
0
 10
-11.156642260102187
 20
-4.159109435035573
 30
0.0
  0
VERTEX
  8
0
 10
-11.327750535318945
 20
-4.186210323440678
 30
0.0
  0
VERTEX
  8
0
 10
-11.498858810535705
 20
-4.21331121184578
 30
0.0
  0
VERTEX
  8
0
 10
-11.64286619734736
 20
-4.411520375467641
 30
0.0
  0
VERTEX
  8
0
 10
-11.732671807348812
 20
-4.951946089523021
 30
0.0
  0
VERTEX
  8
0
 10
-12.08418732959181
 20
-4.393718458872019
 30
0.0
  0
VERTEX
  8
0
 10
-11.669967085752464
 20
-4.240412100250882
 30
0.0
  0
VERTEX
  8
0
 10
-11.553060587345911
 20
-3.871094661412261
 30
0.0
  0
VERTEX
  8
0
 10
-11.156642260102187
 20
-4.159109435035573
 30
0.0
  0
SEQEND
  0
POLYLINE
  8
0
 66
1
 10
0.0
 20
0.0
 30
0.0
 70
9
  0
VERTEX
  8
0
 10
-11.616770675652937
 20
-3.8248065727942286
 30
0.0
  0
VERTEX
  8
0
 10
-11.787878950869697
 20
-3.8519074611993336
 30
0.0
  0
VERTEX
  8
0
 10
-11.958987226086457
 20
-3.879008349604436
 30
0.0
  0
VERTEX
  8
0
 10
-12.102994612898112
 20
-4.077217513226297
 30
0.0
  0
VERTEX
  8
0
 10
-12.192800222899562
 20
-4.617643227281677
 30
0.0
  0
VERTEX
  8
0
 10
-12.544315745142562
 20
-4.059415596630674
 30
0.0
  0
VERTEX
  8
0
 10
-12.130095501303217
 20
-3.906109238009539
 30
0.0
  0
VERTEX
  8
0
 10
-12.013189002896663
 20
-3.536791799170917
 30
0.0
  0
VERTEX
  8
0
 10
-11.616770675652937
 20
-3.8248065727942286
 30
0.0
  0
SEQEND
  0
POLYLINE
  8
0
 66
1
 10
0.0
 20
0.0
 30
0.0
 70
9
  0
VERTEX
  8
0
 10
-9.381861228692145
 20
-5.448563332252187
 30
0.0
  0
VERTEX
  8
0
 10
-9.552969503908905
 20
-5.475664220657291
 30
0.0
  0
VERTEX
  8
0
 10
-9.724077779125665
 20
-5.502765109062393
 30
0.0
  0
VERTEX
  8
0
 10
-9.86808516593732
 20
-5.700974272684254
 30
0.0
  0
VERTEX
  8
0
 10
-9.95789077593877
 20
-6.241399986739635
 30
0.0
  0
VERTEX
  8
0
 10
-10.309406298181768
 20
-5.683172356088631
 30
0.0
  0
VERTEX
  8
0
 10
-9.895186054342423
 20
-5.529865997467496
 30
0.0
  0
VERTEX
  8
0
 10
-9.778279555935871
 20
-5.160548558628874
 30
0.0
  0
VERTEX
  8
0
 10
-9.381861228692145
 20
-5.448563332252187
 30
0.0
  0
SEQEND
  0
POLYLINE
  8
0
 66
1
 10
0.0
 20
0.0
 30
0.0
 70
9
  0
VERTEX
  8
0
 10
-9.841989644242897
 20
-5.1142604700108425
 30
0.0
  0
VERTEX
  8
0
 10
-10.013097919459657
 20
-5.1413613584159465
 30
0.0
  0
VERTEX
  8
0
 10
-10.184206194676417
 20
-5.168462246821049
 30
0.0
  0
VERTEX
  8
0
 10
-10.328213581488072
 20
-5.36667141044291
 30
0.0
  0
VERTEX
  8
0
 10
-10.41801919148952
 20
-5.907097124498291
 30
0.0
  0
VERTEX
  8
0
 10
-10.769534713732519
 20
-5.348869493847288
 30
0.0
  0
VERTEX
  8
0
 10
-10.355314469893175
 20
-5.195563135226152
 30
0.0
  0
VERTEX
  8
0
 10
-10.238407971486621
 20
-4.82624569638753
 30
0.0
  0
VERTEX
  8
0
 10
-9.841989644242897
 20
-5.1142604700108425
 30
0.0
  0
SEQEND
  0
POLYLINE
  8
0
 66
1
 10
0.0
 20
0.0
 30
0.0
 70
9
  0
VERTEX
  8
0
 10
-10.30211805979365
 20
-4.779957607769498
 30
0.0
  0
VERTEX
  8
0
 10
-10.47322633501041
 20
-4.807058496174602
 30
0.0
  0
VERTEX
  8
0
 10
-10.644334610227169
 20
-4.834159384579705
 30
0.0
  0
VERTEX
  8
0
 10
-10.788341997038824
 20
-5.032368548201566
 30
0.0
  0
VERTEX
  8
0
 10
-10.878147607040273
 20
-5.572794262256947
 30
0.0
  0
VERTEX
  8
0
 10
-11.22966312928327
 20
-5.014566631605943
 30
0.0
  0
VERTEX
  8
0
 10
-10.815442885443925
 20
-4.861260272984808
 30
0.0
  0
VERTEX
  8
0
 10
-10.698536387037374
 20
-4.491942834146186
 30
0.0
  0
VERTEX
  8
0
 10
-10.30211805979365
 20
-4.779957607769498
 30
0.0
  0
SEQEND
  0
POLYLINE
  8
0
 66
1
 10
0.0
 20
0.0
 30
0.0
 70
9
  0
VERTEX
  8
0
 10
0.0
 20
0.0
 30
0.0
  0
VERTEX
  8
0
 10
-0.22123174208247454
 20
-1.3968022466674206
 30
0.0
  0
VERTEX
  8
0
 10
-0.4424634841649491
 20
-2.793604493334841
 30
0.0
  0
VERTEX
  8
0
 10
0.733107020419997
 20
-4.4116384820847365
 30
0.0
  0
VERTEX
  8
0
 10
4.702282018339784
 20
-6.4721359549995805
 30
0.0
  0
VERTEX
  8
0
 10
-0.5183734581198998
 20
-7.793028227712051
 30
0.0
  0
VERTEX
  8
0
 10
-0.6636952262474236
 20
-4.1904067400022615
 30
0.0
  0
VERTEX
  8
0
 10
-3.2360679774997902
 20
-2.351141009169892
 30
0.0
  0
VERTEX
  8
0
 10
0.0
 20
0.0
 30
0.0
  0
SEQEND
  0
POLYLINE
  8
0
 66
1
 10
0.0
 20
0.0
 30
0.0
 70
9
  0
VERTEX
  8
0
 10
1.6909163726310976
 20
-7.856576978606403
 30
0.0
  0
VERTEX
  8
0
 10
1.613485262902231
 20
-8.345457764939999
 30
0.0
  0
VERTEX
  8
0
 10
1.5360541531733656
 20
-8.834338551273596
 30
0.0
  0
VERTEX
  8
0
 10
1.9475038297780962
 20
-9.40065044733606
 30
0.0
  0
VERTEX
  8
0
 10
3.336715079050021
 20
-10.121824562856254
 30
0.0
  0
VERTEX
  8
0
 10
1.5094856622891317
 20
-10.58413685830562
 30
0.0
  0
VERTEX
  8
0
 10
1.4586230434444984
 20
-9.323219337607192
 30
0.0
  0
VERTEX
  8
0
 10
0.5582925805061705
 20
-8.679476331815865
 30
0.0
  0
VERTEX
  8
0
 10
1.6909163726310976
 20
-7.856576978606403
 30
0.0
  0
SEQEND
  0
POLYLINE
  8
0
 66
1
 10
0.0
 20
0.0
 30
0.0
 70
9
  0
VERTEX
  8
0
 10
0.3762637567718077
 20
-8.811728013581671
 30
0.0
  0
VERTEX
  8
0
 10
0.2988326470429419
 20
-9.300608799915267
 30
0.0
  0
VERTEX
  8
0
 10
0.22140153731407608
 20
-9.789489586248866
 30
0.0
  0
VERTEX
  8
0
 10
0.6328512139188067
 20
-10.355801482311328
 30
0.0
  0
VERTEX
  8
0
 10
2.022062463190731
 20
-11.076975597831522
 30
0.0
  0
VERTEX
  8
0
 10
0.19483304642984223
 20
-11.539287893280887
 30
0.0
  0
VERTEX
  8
0
 10
0.1439704275852085
 20
-10.278370372582462
 30
0.0
  0
VERTEX
  8
0
 10
-0.7563600353531195
 20
-9.634627366791133
 30
0.0
  0
VERTEX
  8
0
 10
0.3762637567718077
 20
-8.811728013581671
 30
0.0
  0
SEQEND
  0
POLYLINE
  8
0
 66
1
 10
0.0
 20
0.0
 30
0.0
 70
9
  0
VERTEX
  8
0
 10
-0.9383888590874818
 20
-9.76687904855694
 30
0.0
  0
VERTEX
  8
0
 10
-1.0158199688163485
 20
-10.255759834890537
 30
0.0
  0
VERTEX
  8
0
 10
-1.0932510785452143
 20
-10.744640621224134
 30
0.0
  0
VERTEX
  8
0
 10
-0.6818014019404837
 20
-11.310952517286598
 30
0.0
  0
VERTEX
  8
0
 10
0.7074098473314416
 20
-12.032126632806792
 30
0.0
  0
VERTEX
  8
0
 10
-1.1198195694294473
 20
-12.494438928256155
 30
0.0
  0
VERTEX
  8
0
 10
-1.1706821882740819
 20
-11.233521407557731
 30
0.0
  0
VERTEX
  8
0
 10
-2.071012651212409
 20
-10.589778401766402
 30
0.0
  0
VERTEX
  8
0
 10
-0.9383888590874818
 20
-9.76687904855694
 30
0.0
  0
SEQEND
  0
POLYLINE
  8
0
 66
1
 10
0.0
 20
0.0
 30
0.0
 70
9
  0
VERTEX
  8
0
 10
-0.3465681286665996
 20
-12.516680991069176
 30
0.0
  0
VERTEX
  8
0
 10
-0.37366901707170275
 20
-12.687789266285938
 30
0.0
  0
VERTEX
  8
0
 10
-0.4007699054768059
 20
-12.858897541502696
 30
0.0
  0
VERTEX
  8
0
 10
-0.2567625186651501
 20
-13.057106705124559
 30
0.0
  0
VERTEX
  8
0
 10
0.22946141858002367
 20
-13.309517645556628
 30
0.0
  0
VERTEX
  8
0
 10
-0.41006887728628794
 20
-13.471326948963904
 30
0.0
  0
VERTEX
  8
0
 10
-0.42787079388190996
 20
-13.030005816719456
 30
0.0
  0
VERTEX
  8
0
 10
-0.742986455910323
 20
-12.80469576469249
 30
0.0
  0
VERTEX
  8
0
 10
-0.3465681286665996
 20
-12.516680991069176
 30
0.0
  0
SEQEND
  0
POLYLINE
  8
0
 66
1
 10
0.0
 20
0.0
 30
0.0
 70
9
  0
VERTEX
  8
0
 10
-0.8066965442173517
 20
-12.85098385331052
 30
0.0
  0
VERTEX
  8
0
 10
-0.833797432622454
 20
-13.02209212852728
 30
0.0
  0
VERTEX
  8
0
 10
-0.8608983210275571
 20
-13.19320040374404
 30
0.0
  0
VERTEX
  8
0
 10
-0.7168909342159013
 20
-13.391409567365903
 30
0.0
  0
VERTEX
  8
0
 10
-0.23066699697072846
 20
-13.643820507797972
 30
0.0
  0
VERTEX
  8
0
 10
-0.8701972928370392
 20
-13.805629811205247
 30
0.0
  0
VERTEX
  8
0
 10
-0.8879992094326612
 20
-13.3643086789608
 30
0.0
  0
VERTEX
  8
0
 10
-1.203114871461076
 20
-13.138998626933834
 30
0.0
  0
VERTEX
  8
0
 10
-0.8066965442173517
 20
-12.85098385331052
 30
0.0
  0
SEQEND
  0
POLYLINE
  8
0
 66
1
 10
0.0
 20
0.0
 30
0.0
 70
9
  0
VERTEX
  8
0
 10
-1.266824959768102
 20
-13.185286715551864
 30
0.0
  0
VERTEX
  8
0
 10
-1.293925848173206
 20
-13.356394990768626
 30
0.0
  0
VERTEX
  8
0
 10
-1.3210267365783084
 20
-13.527503265985384
 30
0.0
  0
VERTEX
  8
0
 10
-1.1770193497666526
 20
-13.725712429607247
 30
0.0
  0
VERTEX
  8
0
 10
-0.6907954125214788
 20
-13.978123370039317
 30
0.0
  0
VERTEX
  8
0
 10
-1.3303257083877904
 20
-14.13993267344659
 30
0.0
  0
VERTEX
  8
0
 10
-1.3481276249834124
 20
-13.698611541202142
 30
0.0
  0
VERTEX
  8
0
 10
-1.6632432870118272
 20
-13.473301489175178
 30
0.0
  0
VERTEX
  8
0
 10
-1.266824959768102
 20
-13.185286715551864
 30
0.0
  0
SEQEND
  0
POLYLINE
  8
0
 66
1
 10
0.0
 20
0.0
 30
0.0
 70
9
  0
VERTEX
  8
0
 10
0.9680844871926899
 20
-11.561529956093908
 30
0.0
  0
VERTEX
  8
0
 10
0.9409835987875868
 20
-11.732638231310668
 30
0.0
  0
VERTEX
  8
0
 10
0.9138827103824836
 20
-11.903746506527428
 30
0.0
  0
VERTEX
  8
0
 10
1.0578900971941394
 20
-12.101955670149291
 30
0.0
  0
VERTEX
  8
0
 10
1.5441140344393132
 20
-12.354366610581359
 30
0.0
  0
VERTEX
  8
0
 10
0.9045837385730016
 20
-12.516175913988636
 30
0.0
  0
VERTEX
  8
0
 10
0.8867818219773804
 20
-12.074854781744186
 30
0.0
  0
VERTEX
  8
0
 10
0.5716661599489656
 20
-11.84954472971722
 30
0.0
  0
VERTEX
  8
0
 10
0.9680844871926899
 20
-11.561529956093908
 30
0.0
  0
SEQEND
  0
POLYLINE
  8
0
 66
1
 10
0.0
 20
0.0
 30
0.0
 70
9
  0
VERTEX
  8
0
 10
0.5079560716419396
 20
-11.895832818335252
 30
0.0
  0
VERTEX
  8
0
 10
0.4808551832368355
 20
-12.066941093552012
 30
0.0
  0
VERTEX
  8
0
 10
0.45375429483173235
 20
-12.23804936876877
 30
0.0
  0
VERTEX
  8
0
 10
0.5977616816433882
 20
-12.436258532390635
 30
0.0
  0
VERTEX
  8
0
 10
1.0839856188885628
 20
-12.688669472822703
 30
0.0
  0
VERTEX
  8
0
 10
0.4444553230222503
 20
-12.85047877622998
 30
0.0
  0
VERTEX
  8
0
 10
0.4266534064266283
 20
-12.40915764398553
 30
0.0
  0
VERTEX
  8
0
 10
0.1115377443982144
 20
-12.183847591958564
 30
0.0
  0
VERTEX
  8
0
 10
0.5079560716419396
 20
-11.895832818335252
 30
0.0
  0
SEQEND
  0
POLYLINE
  8
0
 66
1
 10
0.0
 20
0.0
 30
0.0
 70
9
  0
VERTEX
  8
0
 10
0.04782765609118744
 20
-12.230135680576597
 30
0.0
  0
VERTEX
  8
0
 10
0.02072676768608428
 20
-12.401243955793356
 30
0.0
  0
VERTEX
  8
0
 10
-0.006374120719018883
 20
-12.572352231010115
 30
0.0
  0
VERTEX
  8
0
 10
0.13763326609263693
 20
-12.77056139463198
 30
0.0
  0
VERTEX
  8
0
 10
0.6238572033378107
 20
-13.022972335064047
 30
0.0
  0
VERTEX
  8
0
 10
-0.015673092528501797
 20
-13.184781638471325
 30
0.0
  0
VERTEX
  8
0
 10
-0.033475009124122046
 20
-12.743460506226874
 30
0.0
  0
VERTEX
  8
0
 10
-0.34859067115253684
 20
-12.518150454199908
 30
0.0
  0
VERTEX
  8
0
 10
0.04782765609118744
 20
-12.230135680576597
 30
0.0
  0
SEQEND
  0
POLYLINE
  8
0
 66
1
 10
0.0
 20
0.0
 30
0.0
 70
9
  0
VERTEX
  8
0
 10
2.2827371030519803
 20
-10.60637892111864
 30
0.0
  0
VERTEX
  8
0
 10
2.2556362146468767
 20
-10.7774871963354
 30
0.0
  0
VERTEX
  8
0
 10
2.2285353262417735
 20
-10.948595471552158
 30
0.0
  0
VERTEX
  8
0
 10
2.3725427130534293
 20
-11.146804635174021
 30
0.0
  0
VERTEX
  8
0
 10
2.8587666502986036
 20
-11.39921557560609
 30
0.0
  0
VERTEX
  8
0
 10
2.219236354432291
 20
-11.561024879013367
 30
0.0
  0
VERTEX
  8
0
 10
2.2014344378366704
 20
-11.119703746768916
 30
0.0
  0
VERTEX
  8
0
 10
1.8863187758082556
 20
-10.894393694741952
 30
0.0
  0
VERTEX
  8
0
 10
2.2827371030519803
 20
-10.60637892111864
 30
0.0
  0
SEQEND
  0
POLYLINE
  8
0
 66
1
 10
0.0
 20
0.0
 30
0.0
 70
9
  0
VERTEX
  8
0
 10
1.822608687501229
 20
-10.940681783359985
 30
0.0
  0
VERTEX
  8
0
 10
1.795507799096125
 20
-11.111790058576744
 30
0.0
  0
VERTEX
  8
0
 10
1.7684069106910227
 20
-11.282898333793502
 30
0.0
  0
VERTEX
  8
0
 10
1.9124142975026786
 20
-11.481107497415366
 30
0.0
  0
VERTEX
  8
0
 10
2.3986382347478523
 20
-11.733518437847433
 30
0.0
  0
VERTEX
  8
0
 10
1.7591079388815398
 20
-11.895327741254711
 30
0.0
  0
VERTEX
  8
0
 10
1.7413060222859187
 20
-11.45400660901026
 30
0.0
  0
VERTEX
  8
0
 10
1.4261903602575048
 20
-11.228696556983296
 30
0.0
  0
VERTEX
  8
0
 10
1.822608687501229
 20
-10.940681783359985
 30
0.0
  0
SEQEND
  0
POLYLINE
  8
0
 66
1
 10
0.0
 20
0.0
 30
0.0
 70
9
  0
VERTEX
  8
0
 10
1.362480271950477
 20
-11.274984645601329
 30
0.0
  0
VERTEX
  8
0
 10
1.3353793835453738
 20
-11.446092920818089
 30
0.0
  0
VERTEX
  8
0
 10
1.3082784951402706
 20
-11.617201196034847
 30
0.0
  0
VERTEX
  8
0
 10
1.4522858819519264
 20
-11.81541035965671
 30
0.0
  0
VERTEX
  8
0
 10
1.9385098191971002
 20
-12.067821300088779
 30
0.0
  0
VERTEX
  8
0
 10
1.2989795233307886
 20
-12.229630603496055
 30
0.0
  0
VERTEX
  8
0
 10
1.2811776067351675
 20
-11.788309471251605
 30
0.0
  0
VERTEX
  8
0
 10
0.9660619447067527
 20
-11.56299941922464
 30
0.0
  0
VERTEX
  8
0
 10
1.362480271950477
 20
-11.274984645601329
 30
0.0
  0
SEQEND
  0
POLYLINE
  8
0
 66
1
 10
0.0
 20
0.0
 30
0.0
 70
9
  0
VERTEX
  8
0
 10
0.0
 20
0.0
 30
0.0
  0
VERTEX
  8
0
 10
1.2600735106701009
 20
-0.6420395219202064
 30
0.0
  0
VERTEX
  8
0
 10
2.5201470213402017
 20
-1.2840790438404128
 30
0.0
  0
VERTEX
  8
0
 10
4.4222600539305095
 20
-0.6660450550905184
 30
0.0
  0
VERTEX
  8
0
 10
7.608452130361229
 20
2.472135954999578
 30
0.0
  0
VERTEX
  8
0
 10
7.251424069645658
 20
-2.901180615226085
 30
0.0
  0
VERTEX
  8
0
 10
3.7802205320103024
 20
-1.9261185657606192
 30
0.0
  0
VERTEX
  8
0
 10
1.236067977499789
 20
-3.8042260651806146
 30
0.0
  0
VERTEX
  8
0
 10
0.0
 20
0.0
 30
0.0
  0
SEQEND
  0
POLYLINE
  8
0
 66
1
 10
0.0
 20
0.0
 30
0.0
 70
9
  0
VERTEX
  8
0
 10
7.994570626487958
 20
-0.8196587693033872
 30
0.0
  0
VERTEX
  8
0
 10
8.435596355222494
 20
-1.0443726019754593
 30
0.0
  0
VERTEX
  8
0
 10
8.87662208395703
 20
-1.2690864346475315
 30
0.0
  0
VERTEX
  8
0
 10
9.542361645363636
 20
-1.0527745385850689
 30
0.0
  0
VERTEX
  8
0
 10
10.657528872114387
 20
0.045588814946464495
 30
0.0
  0
VERTEX
  8
0
 10
10.532569050863938
 20
-1.835071984632517
 30
0.0
  0
VERTEX
  8
0
 10
9.317647812691563
 20
-1.493800267319604
 30
0.0
  0
VERTEX
  8
0
 10
8.427194418612885
 20
-2.1511378921166027
 30
0.0
  0
VERTEX
  8
0
 10
7.994570626487958
 20
-0.8196587693033872
 30
0.0
  0
SEQEND
  0
POLYLINE
  8
0
 66
1
 10
0.0
 20
0.0
 30
0.0
 70
9
  0
VERTEX
  8
0
 10
8.496723242347247
 20
-2.365125608283012
 30
0.0
  0
VERTEX
  8
0
 10
8.937748971081783
 20
-2.5898394409550836
 30
0.0
  0
VERTEX
  8
0
 10
9.378774699816319
 20
-2.814553273627156
 30
0.0
  0
VERTEX
  8
0
 10
10.044514261222925
 20
-2.5982413775646935
 30
0.0
  0
VERTEX
  8
0
 10
11.159681487973677
 20
-1.4998780240331602
 30
0.0
  0
VERTEX
  8
0
 10
11.034721666723227
 20
-3.3805388236121416
 30
0.0
  0
VERTEX
  8
0
 10
9.819800428550852
 20
-3.0392671062992287
 30
0.0
  0
VERTEX
  8
0
 10
8.929347034472174
 20
-3.6966047310962273
 30
0.0
  0
VERTEX
  8
0
 10
8.496723242347247
 20
-2.365125608283012
 30
0.0
  0
SEQEND
  0
POLYLINE
  8
0
 66
1
 10
0.0
 20
0.0
 30
0.0
 70
9
  0
VERTEX
  8
0
 10
8.998875858206537
 20
-3.9105924472626366
 30
0.0
  0
VERTEX
  8
0
 10
9.439901586941073
 20
-4.135306279934708
 30
0.0
  0
VERTEX
  8
0
 10
9.880927315675608
 20
-4.360020112606781
 30
0.0
  0
VERTEX
  8
0
 10
10.546666877082215
 20
-4.143708216544319
 30
0.0
  0
VERTEX
  8
0
 10
11.661834103832966
 20
-3.045344863012785
 30
0.0
  0
VERTEX
  8
0
 10
11.536874282582517
 20
-4.926005662591766
 30
0.0
  0
VERTEX
  8
0
 10
10.32195304441014
 20
-4.584733945278854
 30
0.0
  0
VERTEX
  8
0
 10
9.431499650331464
 20
-5.2420715700758524
 30
0.0
  0
VERTEX
  8
0
 10
8.998875858206537
 20
-3.9105924472626366
 30
0.0
  0
SEQEND
  0
POLYLINE
  8
0
 66
1
 10
0.0
 20
0.0
 30
0.0
 70
9
  0
VERTEX
  8
0
 10
11.796975577477319
 20
-4.197473016518822
 30
0.0
  0
VERTEX
  8
0
 10
11.951334582534408
 20
-4.276122857954048
 30
0.0
  0
VERTEX
  8
0
 10
12.105693587591494
 20
-4.354772699389273
 30
0.0
  0
VERTEX
  8
0
 10
12.338702434083807
 20
-4.279063535767412
 30
0.0
  0
VERTEX
  8
0
 10
12.72901096344657
 20
-3.8946363620313744
 30
0.0
  0
VERTEX
  8
0
 10
12.685275026008913
 20
-4.552867641884019
 30
0.0
  0
VERTEX
  8
0
 10
12.26005259264858
 20
-4.4334225408245
 30
0.0
  0
VERTEX
  8
0
 10
11.948393904721044
 20
-4.6634907095034475
 30
0.0
  0
VERTEX
  8
0
 10
11.796975577477319
 20
-4.197473016518822
 30
0.0
  0
SEQEND
  0
POLYLINE
  8
0
 66
1
 10
0.0
 20
0.0
 30
0.0
 70
9
  0
VERTEX
  8
0
 10
11.97272899302807
 20
-4.7383864101616915
 30
0.0
  0
VERTEX
  8
0
 10
12.127087998085159
 20
-4.8170362515969165
 30
0.0
  0
VERTEX
  8
0
 10
12.281447003142246
 20
-4.8956860930321415
 30
0.0
  0
VERTEX
  8
0
 10
12.514455849634558
 20
-4.819976929410279
 30
0.0
  0
VERTEX
  8
0
 10
12.90476437899732
 20
-4.435549755674243
 30
0.0
  0
VERTEX
  8
0
 10
12.861028441559665
 20
-5.093781035526888
 30
0.0
  0
VERTEX
  8
0
 10
12.435806008199332
 20
-4.974335934467367
 30
0.0
  0
VERTEX
  8
0
 10
12.124147320271796
 20
-5.204404103146318
 30
0.0
  0
VERTEX
  8
0
 10
11.97272899302807
 20
-4.7383864101616915
 30
0.0
  0
SEQEND
  0
POLYLINE
  8
0
 66
1
 10
0.0
 20
0.0
 30
0.0
 70
9
  0
VERTEX
  8
0
 10
12.148482408578822
 20
-5.279299803804561
 30
0.0
  0
VERTEX
  8
0
 10
12.30284141363591
 20
-5.357949645239787
 30
0.0
  0
VERTEX
  8
0
 10
12.457200418692997
 20
-5.436599486675011
 30
0.0
  0
VERTEX
  8
0
 10
12.69020926518531
 20
-5.360890323053148
 30
0.0
  0
VERTEX
  8
0
 10
13.080517794548072
 20
-4.976463149317112
 30
0.0
  0
VERTEX
  8
0
 10
13.036781857110414
 20
-5.634694429169755
 30
0.0
  0
VERTEX
  8
0
 10
12.611559423750084
 20
-5.515249328110235
 30
0.0
  0
VERTEX
  8
0
 10
12.299900735822547
 20
-5.745317496789186
 30
0.0
  0
VERTEX
  8
0
 10
12.148482408578822
 20
-5.279299803804561
 30
0.0
  0
SEQEND
  0
POLYLINE
  8
0
 66
1
 10
0.0
 20
0.0
 30
0.0
 70
9
  0
VERTEX
  8
0
 10
11.29482296161803
 20
-2.652006177539198
 30
0.0
  0
VERTEX
  8
0
 10
11.449181966675118
 20
-2.7306560189744236
 30
0.0
  0
VERTEX
  8
0
 10
11.603540971732205
 20
-2.8093058604096486
 30
0.0
  0
VERTEX
  8
0
 10
11.836549818224517
 20
-2.7335966967877865
 30
0.0
  0
VERTEX
  8
0
 10
12.22685834758728
 20
-2.3491695230517498
 30
0.0
  0
VERTEX
  8
0
 10
12.183122410149624
 20
-3.0074008029043937
 30
0.0
  0
VERTEX
  8
0
 10
11.757899976789291
 20
-2.887955701844874
 30
0.0
  0
VERTEX
  8
0
 10
11.446241288861755
 20
-3.1180238705238232
 30
0.0
  0
VERTEX
  8
0
 10
11.29482296161803
 20
-2.652006177539198
 30
0.0
  0
SEQEND
  0
POLYLINE
  8
0
 66
1
 10
0.0
 20
0.0
 30
0.0
 70
9
  0
VERTEX
  8
0
 10
11.470576377168781
 20
-3.1929195711820664
 30
0.0
  0
VERTEX
  8
0
 10
11.62493538222587
 20
-3.271569412617292
 30
0.0
  0
VERTEX
  8
0
 10
11.779294387282956
 20
-3.350219254052517
 30
0.0
  0
VERTEX
  8
0
 10
12.012303233775269
 20
-3.2745100904306548
 30
0.0
  0
VERTEX
  8
0
 10
12.402611763138031
 20
-2.890082916694618
 30
0.0
  0
VERTEX
  8
0
 10
12.358875825700373
 20
-3.548314196547262
 30
0.0
  0
VERTEX
  8
0
 10
11.933653392340043
 20
-3.428869095487743
 30
0.0
  0
VERTEX
  8
0
 10
11.621994704412506
 20
-3.6589372641666915
 30
0.0
  0
VERTEX
  8
0
 10
11.470576377168781
 20
-3.1929195711820664
 30
0.0
  0
SEQEND
  0
POLYLINE
  8
0
 66
1
 10
0.0
 20
0.0
 30
0.0
 70
9
  0
VERTEX
  8
0
 10
11.646329792719532
 20
-3.7338329648249355
 30
0.0
  0
VERTEX
  8
0
 10
11.80068879777662
 20
-3.812482806260161
 30
0.0
  0
VERTEX
  8
0
 10
11.955047802833707
 20
-3.891132647695386
 30
0.0
  0
VERTEX
  8
0
 10
12.18805664932602
 20
-3.815423484073524
 30
0.0
  0
VERTEX
  8
0
 10
12.578365178688783
 20
-3.430996310337487
 30
0.0
  0
VERTEX
  8
0
 10
12.534629241251125
 20
-4.089227590190131
 30
0.0
  0
VERTEX
  8
0
 10
12.109406807890794
 20
-3.9697824891306115
 30
0.0
  0
VERTEX
  8
0
 10
11.797748119963257
 20
-4.199850657809561
 30
0.0
  0
VERTEX
  8
0
 10
11.646329792719532
 20
-3.7338329648249355
 30
0.0
  0
SEQEND
  0
POLYLINE
  8
0
 66
1
 10
0.0
 20
0.0
 30
0.0
 70
9
  0
VERTEX
  8
0
 10
10.79267034575874
 20
-1.1065393385595734
 30
0.0
  0
VERTEX
  8
0
 10
10.947029350815829
 20
-1.185189179994799
 30
0.0
  0
VERTEX
  8
0
 10
11.101388355872915
 20
-1.263839021430024
 30
0.0
  0
VERTEX
  8
0
 10
11.334397202365228
 20
-1.1881298578081618
 30
0.0
  0
VERTEX
  8
0
 10
11.72470573172799
 20
-0.8037026840721251
 30
0.0
  0
VERTEX
  8
0
 10
11.680969794290334
 20
-1.461933963924769
 30
0.0
  0
VERTEX
  8
0
 10
11.255747360930002
 20
-1.3424888628652494
 30
0.0
  0
VERTEX
  8
0
 10
10.944088673002465
 20
-1.5725570315441986
 30
0.0
  0
VERTEX
  8
0
 10
10.79267034575874
 20
-1.1065393385595734
 30
0.0
  0
SEQEND
  0
POLYLINE
  8
0
 66
1
 10
0.0
 20
0.0
 30
0.0
 70
9
  0
VERTEX
  8
0
 10
10.968423761309491
 20
-1.6474527322024417
 30
0.0
  0
VERTEX
  8
0
 10
11.12278276636658
 20
-1.726102573637668
 30
0.0
  0
VERTEX
  8
0
 10
11.277141771423667
 20
-1.8047524150728922
 30
0.0
  0
VERTEX
  8
0
 10
11.51015061791598
 20
-1.72904325145103
 30
0.0
  0
VERTEX
  8
0
 10
11.900459147278742
 20
-1.3446160777149934
 30
0.0
  0
VERTEX
  8
0
 10
11.856723209841086
 20
-2.0028473575676373
 30
0.0
  0
VERTEX
  8
0
 10
11.431500776480753
 20
-1.8834022565081185
 30
0.0
  0
VERTEX
  8
0
 10
11.119842088553217
 20
-2.113470425187067
 30
0.0
  0
VERTEX
  8
0
 10
10.968423761309491
 20
-1.6474527322024417
 30
0.0
  0
SEQEND
  0
POLYLINE
  8
0
 66
1
 10
0.0
 20
0.0
 30
0.0
 70
9
  0
VERTEX
  8
0
 10
11.144177176860243
 20
-2.188366125845311
 30
0.0
  0
VERTEX
  8
0
 10
11.298536181917331
 20
-2.2670159672805363
 30
0.0
  0
VERTEX
  8
0
 10
11.452895186974418
 20
-2.3456658087157614
 30
0.0
  0
VERTEX
  8
0
 10
11.68590403346673
 20
-2.2699566450938993
 30
0.0
  0
VERTEX
  8
0
 10
12.076212562829493
 20
-1.8855294713578625
 30
0.0
  0
VERTEX
  8
0
 10
12.032476625391837
 20
-2.5437607512105065
 30
0.0
  0
VERTEX
  8
0
 10
11.607254192031505
 20
-2.424315650150987
 30
0.0
  0
VERTEX
  8
0
 10
11.295595504103968
 20
-2.654383818829936
 30
0.0
  0
VERTEX
  8
0
 10
11.144177176860243
 20
-2.188366125845311
 30
0.0
  0
SEQEND
  0
ENDSEC
  0
EOF
