  0
SECTION
  2
HEADER
  9
$UNITMODE
 70
0
  9
$AUNITS
 70
0
  9
$ANGBASE
 50
0.0
  9
$ANGDIR
 70
0
  9
$EXTMIN
 10
0.0
 20
0.0
 30
0.0
  9
$EXTMAX
 10
100.0
 20
100.0
 30
0.0
  9
$ACADVER
  1
AC1009
  9
$INSBASE
 10
0.0
 20
0.0
 30
0.0
  0
ENDSEC
  0
SECTION
  2
TABLES
  0
TABLE
  2
LTYPE
 70
19
  0
LTYPE
  2
PHANTOM
 70
0
  3
Phantom ______  __  __  ______  __  __  ______
 72
65
 73
6
 40
2.5
 49
1.25
 49
-0.25
 49
0.25
 49
-0.25
 49
0.25
 49
-0.25
  0
LTYPE
  2
CENTERX2
 70
0
  3
Center (2x) ________  __  ________  __  ________
 72
65
 73
4
 40
3.5
 49
2.5
 49
-0.25
 49
0.5
 49
-0.25
  0
LTYPE
  2
CENTER2
 70
0
  3
Center (.5x) ____ _ ____ _ ____ _ ____ _ ____
 72
65
 73
4
 40
1.0
 49
0.625
 49
-0.125
 49
0.125
 49
-0.125
  0
LTYPE
  2
DOT
 70
0
  3
Dot .  .  .  .  .  .  .  .  .  .  .  .  .  .  .  .
 72
65
 73
2
 40
0.2
 49
0.0
 49
-0.2
  0
LTYPE
  2
DOTX2
 70
0
  3
Dot (2x) .    .    .    .    .    .    .    . 
 72
65
 73
2
 40
0.4
 49
0.0
 49
-0.4
  0
LTYPE
  2
PHANTOMX2
 70
0
  3
Phantom (2x)____________    ____    ____    ____________
 72
65
 73
6
 40
4.25
 49
2.5
 49
-0.25
 49
0.5
 49
-0.25
 49
0.5
 49
-0.25
  0
LTYPE
  2
DIVIDE2
 70
0
  3
Divide(.5x) _ . _ . _ . _ . _ . _ . _ . _
 72
65
 73
6
 40
0.8
 49
0.5
 49
-0.1
 49
0.0
 49
-0.1
 49
0.0
 49
-0.1
  0
LTYPE
  2
PHANTOM2
 70
0
  3
Phantom (.5x) ___ _ _ ___ _ _ ___ _ _ ___ _ _ ___
 72
65
 73
6
 40
1.25
 49
0.625
 49
-0.125
 49
0.125
 49
-0.125
 49
0.125
 49
-0.125
  0
LTYPE
  2
DASHDOTX2
 70
0
  3
Dash dot (2x) ____  .  ____  .  ____  .  ____
 72
65
 73
4
 40
2.4
 49
2.0
 49
-0.2
 49
0.0
 49
-0.2
  0
LTYPE
  2
DIVIDEX2
 70
0
  3
Divide (2x) ____  . .  ____  . .  ____  . .  ____
 72
65
 73
6
 40
2.6
 49
2.0
 49
-0.2
 49
0.0
 49
-0.2
 49
0.0
 49
-0.2
  0
LTYPE
  2
DASHDOT2
 70
0
  3
Dash dot (.5x) _ . _ . _ . _ . _ . _ . _ . _
 72
65
 73
4
 40
0.7
 49
0.5
 49
-0.1
 49
0.0
 49
-0.1
  0
LTYPE
  2
DOT2
 70
0
  3
Dot (.5) . . . . . . . . . . . . . . . . . . . 
 72
65
 73
2
 40
0.1
 49
0.0
 49
-0.1
  0
LTYPE
  2
DASHED2
 70
0
  3
Dashed (.5x) _ _ _ _ _ _ _ _ _ _ _ _ _ _
 72
65
 73
2
 40
0.3
 49
0.25
 49
-0.05
  0
LTYPE
  2
DIVIDE
 70
0
  3
Divide __ . . __ . . __ . . __ . . __ . . __
 72
65
 73
6
 40
1.6
 49
1.0
 49
-0.2
 49
0.0
 49
-0.2
 49
0.0
 49
-0.2
  0
LTYPE
  2
DASHED
 70
0
  3
Dashed __ __ __ __ __ __ __ __ __ __ __ __ __ _
 72
65
 73
2
 40
0.6
 49
0.5
 49
-0.1
  0
LTYPE
  2
CONTINUOUS
 70
0
  3
Solid
 72
65
 73
0
 40
0.0
  0
LTYPE
  2
DASHDOT
 70
0
  3
Dash dot __ . __ . __ . __ . __ . __ . __ . __
 72
65
 73
4
 40
1.4
 49
1.0
 49
-0.2
 49
0.0
 49
-0.2
  0
LTYPE
  2
CENTER
 70
0
  3
Center ____ _ ____ _ ____ _ ____ _ ____ _ ____
 72
65
 73
4
 40
2.0
 49
1.25
 49
-0.25
 49
0.25
 49
-0.25
  0
LTYPE
  2
DASHEDX2
 70
0
  3
Dashed (2x) ____  ____  ____  ____  ____  ____
 72
65
 73
2
 40
1.2
 49
1.0
 49
-0.2
  0
ENDTAB
  0
TABLE
  2
LAYER
 70
5
  0
LAYER
  2
TABLEGRID
 70
0
 62
1
  6
CONTINUOUS
  0
LAYER
  2
TABLEBACKGROUND
 70
0
 62
1
  6
CONTINUOUS
  0
LAYER
  2
TABLECONTENT
 70
0
 62
1
  6
CONTINUOUS
  0
LAYER
  2
DIMENSIONS
 70
0
 62
1
  6
CONTINUOUS
  0
LAYER
  2
VIEWPORTS
 70
0
 62
7
  6
CONTINUOUS
  0
ENDTAB
  0
TABLE
  2
STYLE
 70
12
  0
STYLE
  2
ARIAL_BOLD
 70
0
 40
0.0
 41
1.0
 42
1.0
 50
0.0
 71
0
  3
arialbd.ttf
  4

  0
STYLE
  2
ARIAL_BOLD_ITALIC
 70
0
 40
0.0
 41
1.0
 42
1.0
 50
0.0
 71
0
  3
arialbi.ttf
  4

  0
STYLE
  2
ISOCPEUR_ITALIC
 70
0
 40
0.0
 41
1.0
 42
1.0
 50
0.0
 71
0
  3
isocpeui.ttf
  4

  0
STYLE
  2
TIMES_BOLD
 70
0
 40
0.0
 41
1.0
 42
1.0
 50
0.0
 71
0
  3
timesbd.ttf
  4

  0
STYLE
  2
TIMES_BOLD_ITALIC
 70
0
 40
0.0
 41
1.0
 42
1.0
 50
0.0
 71
0
  3
timesbi.ttf
  4

  0
STYLE
  2
ISOCPEUR
 70
0
 40
0.0
 41
1.0
 42
1.0
 50
0.0
 71
0
  3
isocpeur.ttf
  4

  0
STYLE
  2
STANDARD
 70
0
 40
0.0
 41
1.0
 42
1.0
 50
0.0
 71
0
  3
arial.ttf
  4

  0
STYLE
  2
TIMES_ITALIC
 70
0
 40
0.0
 41
1.0
 42
1.0
 50
0.0
 71
0
  3
timesi.ttf
  4

  0
STYLE
  2
ARIAL
 70
0
 40
0.0
 41
1.0
 42
1.0
 50
0.0
 71
0
  3
arial.ttf
  4

  0
STYLE
  2
ARIAL_ITALIC
 70
0
 40
0.0
 41
1.0
 42
1.0
 50
0.0
 71
0
  3
ariali.ttf
  4

  0
STYLE
  2
ARIAL_BLACK
 70
0
 40
0.0
 41
1.0
 42
1.0
 50
0.0
 71
0
  3
ariblk.ttf
  4

  0
STYLE
  2
TIMES
 70
0
 40
0.0
 41
1.0
 42
1.0
 50
0.0
 71
0
  3
times.ttf
  4

  0
ENDTAB
  0
TABLE
  2
VIEW
 70
0
  0
ENDTAB
  0
TABLE
  2
APPID
 70
1
  0
APPID
  2
DXFWRITE
 70
0
  0
ENDTAB
  0
TABLE
  2
VPORT
 70
0
  0
ENDTAB
  0
TABLE
  2
UCS
 70
0
  0
ENDTAB
  0
ENDSEC
  0
SECTION
  2
BLOCKS
  0
ENDSEC
  0
SECTION
  2
ENTITIES
  0
VIEWPORT
  8
VIEWPORTS
 67
1
 10
0.0
 20
0.0
 30
0.0
 40
1.0
 41
1.0
 68
1
 69
1
1001
ACAD
1000
MVIEW
1002
{
1070
16
1010
0.0
1020
0.0
1030
0.0
1010
0.0
1020
0.0
1030
0.0
1040
0.0
1040
1.0
1040
0.0
1040
0.0
1040
50.0
1040
0.0
1040
0.0
1070
0
1070
100
1070
1
1070
3
1070
0
1070
0
1070
0
1070
0
1040
0.0
1040
0.0
1040
0.0
1040
0.1
1040
0.1
1040
0.1
1040
0.1
1070
0
1002
{
1002
}
1002
}
  0
POLYLINE
  8
0
 66
1
 10
0.0
 20
0.0
 30
0.0
 70
9
  0
VERTEX
  8
0
 10
2.0
 20
0.0
 30
0.0
  0
VERTEX
  8
0
 10
4.0
 20
2.0
 30
0.0
  0
VERTEX
  8
0
 10
0.0
 20
2.0
 30
0.0
  0
VERTEX
  8
0
 10
2.0
 20
0.0
 30
0.0
  0
SEQEND
  0
POLYLINE
  8
0
 66
1
 10
0.0
 20
0.0
 30
0.0
 70
9
  0
VERTEX
  8
0
 10
1.0
 20
2.0
 30
0.0
  0
VERTEX
  8
0
 10
1.3779321358364325
 20
3.3627792560433667
 30
0.0
  0
VERTEX
  8
0
 10
-0.36277925604336686
 20
2.3779321358364323
 30
0.0
  0
VERTEX
  8
0
 10
1.0
 20
2.0
 30
0.0
  0
SEQEND
  0
POLYLINE
  8
0
 66
1
 10
0.0
 20
0.0
 30
0.0
 70
9
  0
VERTEX
  8
0
 10
3.0
 20
2.0
 30
0.0
  0
VERTEX
  8
0
 10
4.0086884585625455
 20
2.9912353875657973
 30
0.0
  0
VERTEX
  8
0
 10
2.0087646124342027
 20
3.008688458562545
 30
0.0
  0
VERTEX
  8
0
 10
3.0
 20
2.0
 30
0.0
  0
SEQEND
  0
POLYLINE
  8
0
 66
1
 10
0.0
 20
0.0
 30
0.0
 70
9
  0
VERTEX
  8
0
 10
2.504947979027872
 20
3.002176614974619
 30
0.0
  0
VERTEX
  8
0
 10
2.699853022474402
 20
3.6818912786674853
 30
0.0
  0
VERTEX
  8
0
 10
1.8252333153350067
 20
3.197081658421148
 30
0.0
  0
VERTEX
  8
0
 10
2.504947979027872
 20
3.002176614974619
 30
0.0
  0
SEQEND
  0
POLYLINE
  8
0
 66
1
 10
0.0
 20
0.0
 30
0.0
 70
9
  0
VERTEX
  8
0
 10
3.504344395421139
 20
2.9956367315258867
 30
0.0
  0
VERTEX
  8
0
 10
4.012994446217977
 20
3.48683437588544
 30
0.0
  0
VERTEX
  8
0
 10
3.013146751061585
 20
3.5042867823227235
 30
0.0
  0
VERTEX
  8
0
 10
3.504344395421139
 20
2.9956367315258867
 30
0.0
  0
SEQEND
  0
POLYLINE
  8
0
 66
1
 10
0.0
 20
0.0
 30
0.0
 70
9
  0
VERTEX
  8
0
 10
0.2866904171021111
 20
2.7453843971606524
 30
0.0
  0
VERTEX
  8
0
 10
0.1156258042060822
 20
3.431487084966735
 30
0.0
  0
VERTEX
  8
0
 10
-0.39941227070397217
 20
2.574319784264623
 30
0.0
  0
VERTEX
  8
0
 10
0.2866904171021111
 20
2.7453843971606524
 30
0.0
  0
SEQEND
  0
POLYLINE
  8
0
 66
1
 10
0.0
 20
0.0
 30
0.0
 70
9
  0
VERTEX
  8
0
 10
1.188956692928067
 20
3.1144189001528937
 30
0.0
  0
VERTEX
  8
0
 10
1.3838617363745966
 20
3.7941335638457594
 30
0.0
  0
VERTEX
  8
0
 10
0.5092420292352006
 20
3.309323943599423
 30
0.0
  0
VERTEX
  8
0
 10
1.188956692928067
 20
3.1144189001528937
 30
0.0
  0
SEQEND
  0
POLYLINE
  8
0
 66
1
 10
0.0
 20
0.0
 30
0.0
 70
9
  0
VERTEX
  8
0
 10
1.0000000000000002
 20
1.7320508075688772
 30
0.0
  0
VERTEX
  8
0
 10
0.26794919243112325
 20
4.464101615137754
 30
0.0
  0
VERTEX
  8
0
 10
-1.7320508075688772
 20
1.0000000000000002
 30
0.0
  0
VERTEX
  8
0
 10
1.0000000000000002
 20
1.7320508075688772
 30
0.0
  0
SEQEND
  0
POLYLINE
  8
0
 66
1
 10
0.0
 20
0.0
 30
0.0
 70
9
  0
VERTEX
  8
0
 10
-1.2320508075688772
 20
1.8660254037844388
 30
0.0
  0
VERTEX
  8
0
 10
-2.2232861951346745
 20
2.874713862346984
 30
0.0
  0
VERTEX
  8
0
 10
-2.2407392661314223
 20
0.8747900162186413
 30
0.0
  0
VERTEX
  8
0
 10
-1.2320508075688772
 20
1.8660254037844388
 30
0.0
  0
SEQEND
  0
POLYLINE
  8
0
 66
1
 10
0.0
 20
0.0
 30
0.0
 70
9
  0
VERTEX
  8
0
 10
-0.23205080756887675
 20
3.598076211353316
 30
0.0
  0
VERTEX
  8
0
 10
-0.5861416050496979
 20
4.967243734755546
 30
0.0
  0
VERTEX
  8
0
 10
-1.6012183309711068
 20
3.243985413872495
 30
0.0
  0
VERTEX
  8
0
 10
-0.23205080756887675
 20
3.598076211353316
 30
0.0
  0
SEQEND
  0
POLYLINE
  8
0
 66
1
 10
0.0
 20
0.0
 30
0.0
 70
9
  0
VERTEX
  8
0
 10
-1.3474872257016575
 20
3.6704368924839366
 30
0.0
  0
VERTEX
  8
0
 10
-1.8386848700612106
 20
4.179086943280774
 30
0.0
  0
VERTEX
  8
0
 10
-1.8561372764984938
 20
3.179239248124383
 30
0.0
  0
VERTEX
  8
0
 10
-1.3474872257016575
 20
3.6704368924839366
 30
0.0
  0
SEQEND
  0
POLYLINE
  8
0
 66
1
 10
0.0
 20
0.0
 30
0.0
 70
9
  0
VERTEX
  8
0
 10
-0.8421253123006318
 20
4.53266963580727
 30
0.0
  0
VERTEX
  8
0
 10
-1.0131899251966603
 20
5.218772323613354
 30
0.0
  0
VERTEX
  8
0
 10
-1.5282280001067148
 20
4.36160502291124
 30
0.0
  0
VERTEX
  8
0
 10
-0.8421253123006318
 20
4.53266963580727
 30
0.0
  0
SEQEND
  0
POLYLINE
  8
0
 66
1
 10
0.0
 20
0.0
 30
0.0
 70
9
  0
VERTEX
  8
0
 10
-2.234227422543496
 20
1.6209733828123114
 30
0.0
  0
VERTEX
  8
0
 10
-2.913942086236362
 20
1.8158784262588408
 30
0.0
  0
VERTEX
  8
0
 10
-2.429132465990025
 20
0.9412587191194448
 30
0.0
  0
VERTEX
  8
0
 10
-2.234227422543496
 20
1.6209733828123114
 30
0.0
  0
SEQEND
  0
POLYLINE
  8
0
 66
1
 10
0.0
 20
0.0
 30
0.0
 70
9
  0
VERTEX
  8
0
 10
-2.1026875390947635
 20
2.5868761501516873
 30
0.0
  0
VERTEX
  8
0
 10
-2.593885183454316
 20
3.0955262009485245
 30
0.0
  0
VERTEX
  8
0
 10
-2.6113375898916007
 20
2.0956785057921334
 30
0.0
  0
VERTEX
  8
0
 10
-2.1026875390947635
 20
2.5868761501516873
 30
0.0
  0
SEQEND
  0
POLYLINE
  8
0
 66
1
 10
0.0
 20
0.0
 30
0.0
 70
9
  0
VERTEX
  8
0
 10
-0.9999999999999996
 20
1.7320508075688774
 30
0.0
  0
VERTEX
  8
0
 10
-3.7320508075688767
 20
2.4641016151377553
 30
0.0
  0
VERTEX
  8
0
 10
-1.7320508075688774
 20
-0.9999999999999996
 30
0.0
  0
VERTEX
  8
0
 10
-0.9999999999999996
 20
1.7320508075688774
 30
0.0
  0
SEQEND
  0
POLYLINE
  8
0
 66
1
 10
0.0
 20
0.0
 30
0.0
 70
9
  0
VERTEX
  8
0
 10
-2.232050807568877
 20
-0.13397459621556085
 30
0.0
  0
VERTEX
  8
0
 10
-3.6012183309711068
 20
-0.48806539369638213
 30
0.0
  0
VERTEX
  8
0
 10
-1.8779600100880556
 20
-1.5031421196177908
 30
0.0
  0
VERTEX
  8
0
 10
-2.232050807568877
 20
-0.13397459621556085
 30
0.0
  0
SEQEND
  0
POLYLINE
  8
0
 66
1
 10
0.0
 20
0.0
 30
0.0
 70
9
  0
VERTEX
  8
0
 10
-3.2320508075688767
 20
1.5980762113533165
 30
0.0
  0
VERTEX
  8
0
 10
-4.594830063612243
 20
1.9760083471897496
 30
0.0
  0
VERTEX
  8
0
 10
-3.60998294340531
 20
0.23529695530994998
 30
0.0
  0
VERTEX
  8
0
 10
-3.2320508075688767
 20
1.5980762113533165
 30
0.0
  0
SEQEND
  0
POLYLINE
  8
0
 66
1
 10
0.0
 20
0.0
 30
0.0
 70
9
  0
VERTEX
  8
0
 10
-3.852435204729529
 20
0.6682602775093176
 30
0.0
  0
VERTEX
  8
0
 10
-4.538537892535612
 20
0.49719566461328957
 30
0.0
  0
VERTEX
  8
0
 10
-3.6813705918335007
 20
-0.017842410296764477
 30
0.0
  0
VERTEX
  8
0
 10
-3.852435204729529
 20
0.6682602775093176
 30
0.0
  0
SEQEND
  0
POLYLINE
  8
0
 66
1
 10
0.0
 20
0.0
 30
0.0
 70
9
  0
VERTEX
  8
0
 10
-4.346469707721771
 20
1.537032904281384
 30
0.0
  0
VERTEX
  8
0
 10
-5.0261843714146375
 20
1.7319379477279144
 30
0.0
  0
VERTEX
  8
0
 10
-4.5413747511683
 20
0.8573182405885178
 30
0.0
  0
VERTEX
  8
0
 10
-4.346469707721771
 20
1.537032904281384
 30
0.0
  0
SEQEND
  0
POLYLINE
  8
0
 66
1
 10
0.0
 20
0.0
 30
0.0
 70
9
  0
VERTEX
  8
0
 10
-2.5209178396456076
 20
-1.1244110143483406
 30
0.0
  0
VERTEX
  8
0
 10
-3.0295678904424443
 20
-1.6156086587078942
 30
0.0
  0
VERTEX
  8
0
 10
-2.0297201952860533
 20
-1.6330610651451778
 30
0.0
  0
VERTEX
  8
0
 10
-2.5209178396456076
 20
-1.1244110143483406
 30
0.0
  0
SEQEND
  0
POLYLINE
  8
0
 66
1
 10
0.0
 20
0.0
 30
0.0
 70
9
  0
VERTEX
  8
0
 10
-3.291644232022831
 20
-0.527542750001206
 30
0.0
  0
VERTEX
  8
0
 10
-3.9777469198289133
 20
-0.6986073628972342
 30
0.0
  0
VERTEX
  8
0
 10
-3.1205796191268016
 20
-1.2136454378072894
 30
0.0
  0
VERTEX
  8
0
 10
-3.291644232022831
 20
-0.527542750001206
 30
0.0
  0
SEQEND
  0
POLYLINE
  8
0
 66
1
 10
0.0
 20
0.0
 30
0.0
 70
9
  0
VERTEX
  8
0
 10
-2.0
 20
2.4492935982947064e-16
 30
0.0
  0
VERTEX
  8
0
 10
-4.0
 20
-1.9999999999999996
 30
0.0
  0
VERTEX
  8
0
 10
-2.4492935982947064e-16
 20
-2.0
 30
0.0
  0
VERTEX
  8
0
 10
-2.0
 20
2.4492935982947064e-16
 30
0.0
  0
SEQEND
  0
POLYLINE
  8
0
 66
1
 10
0.0
 20
0.0
 30
0.0
 70
9
  0
VERTEX
  8
0
 10
-1.0000000000000002
 20
-1.9999999999999998
 30
0.0
  0
VERTEX
  8
0
 10
-1.377932135836433
 20
-3.3627792560433667
 30
0.0
  0
VERTEX
  8
0
 10
0.3627792560433666
 20
-2.3779321358364323
 30
0.0
  0
VERTEX
  8
0
 10
-1.0000000000000002
 20
-1.9999999999999998
 30
0.0
  0
SEQEND
  0
POLYLINE
  8
0
 66
1
 10
0.0
 20
0.0
 30
0.0
 70
9
  0
VERTEX
  8
0
 10
-3.0000000000000004
 20
-1.9999999999999996
 30
0.0
  0
VERTEX
  8
0
 10
-4.0086884585625455
 20
-2.991235387565797
 30
0.0
  0
VERTEX
  8
0
 10
-2.008764612434203
 20
-3.0086884585625446
 30
0.0
  0
VERTEX
  8
0
 10
-3.0000000000000004
 20
-1.9999999999999996
 30
0.0
  0
SEQEND
  0
POLYLINE
  8
0
 66
1
 10
0.0
 20
0.0
 30
0.0
 70
9
  0
VERTEX
  8
0
 10
-2.5049479790278726
 20
-3.0021766149746187
 30
0.0
  0
VERTEX
  8
0
 10
-2.6998530224744024
 20
-3.681891278667485
 30
0.0
  0
VERTEX
  8
0
 10
-1.825233315335007
 20
-3.1970816584211477
 30
0.0
  0
VERTEX
  8
0
 10
-2.5049479790278726
 20
-3.0021766149746187
 30
0.0
  0
SEQEND
  0
POLYLINE
  8
0
 66
1
 10
0.0
 20
0.0
 30
0.0
 70
9
  0
VERTEX
  8
0
 10
-3.5043443954211395
 20
-2.9956367315258863
 30
0.0
  0
VERTEX
  8
0
 10
-4.012994446217977
 20
-3.4868343758854397
 30
0.0
  0
VERTEX
  8
0
 10
-3.0131467510615852
 20
-3.504286782322723
 30
0.0
  0
VERTEX
  8
0
 10
-3.5043443954211395
 20
-2.9956367315258863
 30
0.0
  0
SEQEND
  0
POLYLINE
  8
0
 66
1
 10
0.0
 20
0.0
 30
0.0
 70
9
  0
VERTEX
  8
0
 10
-0.2866904171021114
 20
-2.7453843971606524
 30
0.0
  0
VERTEX
  8
0
 10
-0.11562580420608262
 20
-3.431487084966735
 30
0.0
  0
VERTEX
  8
0
 10
0.39941227070397184
 20
-2.574319784264623
 30
0.0
  0
VERTEX
  8
0
 10
-0.2866904171021114
 20
-2.7453843971606524
 30
0.0
  0
SEQEND
  0
POLYLINE
  8
0
 66
1
 10
0.0
 20
0.0
 30
0.0
 70
9
  0
VERTEX
  8
0
 10
-1.1889566929280675
 20
-3.1144189001528937
 30
0.0
  0
VERTEX
  8
0
 10
-1.383861736374597
 20
-3.7941335638457594
 30
0.0
  0
VERTEX
  8
0
 10
-0.509242029235201
 20
-3.309323943599423
 30
0.0
  0
VERTEX
  8
0
 10
-1.1889566929280675
 20
-3.1144189001528937
 30
0.0
  0
SEQEND
  0
POLYLINE
  8
0
 66
1
 10
0.0
 20
0.0
 30
0.0
 70
9
  0
VERTEX
  8
0
 10
-1.0000000000000009
 20
-1.7320508075688767
 30
0.0
  0
VERTEX
  8
0
 10
-0.267949192431125
 20
-4.464101615137754
 30
0.0
  0
VERTEX
  8
0
 10
1.7320508075688767
 20
-1.0000000000000009
 30
0.0
  0
VERTEX
  8
0
 10
-1.0000000000000009
 20
-1.7320508075688767
 30
0.0
  0
SEQEND
  0
POLYLINE
  8
0
 66
1
 10
0.0
 20
0.0
 30
0.0
 70
9
  0
VERTEX
  8
0
 10
1.2320508075688763
 20
-1.8660254037844393
 30
0.0
  0
VERTEX
  8
0
 10
2.2232861951346727
 20
-2.874713862346985
 30
0.0
  0
VERTEX
  8
0
 10
2.240739266131422
 20
-0.8747900162186423
 30
0.0
  0
VERTEX
  8
0
 10
1.2320508075688763
 20
-1.8660254037844393
 30
0.0
  0
SEQEND
  0
POLYLINE
  8
0
 66
1
 10
0.0
 20
0.0
 30
0.0
 70
9
  0
VERTEX
  8
0
 10
0.23205080756887542
 20
-3.598076211353316
 30
0.0
  0
VERTEX
  8
0
 10
0.5861416050496961
 20
-4.967243734755546
 30
0.0
  0
VERTEX
  8
0
 10
1.6012183309711052
 20
-3.243985413872495
 30
0.0
  0
VERTEX
  8
0
 10
0.23205080756887542
 20
-3.598076211353316
 30
0.0
  0
SEQEND
  0
POLYLINE
  8
0
 66
1
 10
0.0
 20
0.0
 30
0.0
 70
9
  0
VERTEX
  8
0
 10
1.3474872257016557
 20
-3.6704368924839366
 30
0.0
  0
VERTEX
  8
0
 10
1.8386848700612088
 20
-4.179086943280774
 30
0.0
  0
VERTEX
  8
0
 10
1.8561372764984927
 20
-3.1792392481243836
 30
0.0
  0
VERTEX
  8
0
 10
1.3474872257016557
 20
-3.6704368924839366
 30
0.0
  0
SEQEND
  0
POLYLINE
  8
0
 66
1
 10
0.0
 20
0.0
 30
0.0
 70
9
  0
VERTEX
  8
0
 10
0.8421253123006303
 20
-4.53266963580727
 30
0.0
  0
VERTEX
  8
0
 10
1.013189925196658
 20
-5.218772323613354
 30
0.0
  0
VERTEX
  8
0
 10
1.528228000106713
 20
-4.361605022911241
 30
0.0
  0
VERTEX
  8
0
 10
0.8421253123006303
 20
-4.53266963580727
 30
0.0
  0
SEQEND
  0
POLYLINE
  8
0
 66
1
 10
0.0
 20
0.0
 30
0.0
 70
9
  0
VERTEX
  8
0
 10
2.2342274225434955
 20
-1.620973382812312
 30
0.0
  0
VERTEX
  8
0
 10
2.9139420862363608
 20
-1.8158784262588419
 30
0.0
  0
VERTEX
  8
0
 10
2.429132465990025
 20
-0.9412587191194457
 30
0.0
  0
VERTEX
  8
0
 10
2.2342274225434955
 20
-1.620973382812312
 30
0.0
  0
SEQEND
  0
POLYLINE
  8
0
 66
1
 10
0.0
 20
0.0
 30
0.0
 70
9
  0
VERTEX
  8
0
 10
2.102687539094762
 20
-2.5868761501516877
 30
0.0
  0
VERTEX
  8
0
 10
2.593885183454315
 20
-3.095526200948526
 30
0.0
  0
VERTEX
  8
0
 10
2.6113375898916
 20
-2.0956785057921343
 30
0.0
  0
VERTEX
  8
0
 10
2.102687539094762
 20
-2.5868761501516877
 30
0.0
  0
SEQEND
  0
POLYLINE
  8
0
 66
1
 10
0.0
 20
0.0
 30
0.0
 70
9
  0
VERTEX
  8
0
 10
1.0000000000000002
 20
-1.7320508075688772
 30
0.0
  0
VERTEX
  8
0
 10
3.7320508075688776
 20
-2.4641016151377544
 30
0.0
  0
VERTEX
  8
0
 10
1.7320508075688772
 20
1.0000000000000002
 30
0.0
  0
VERTEX
  8
0
 10
1.0000000000000002
 20
-1.7320508075688772
 30
0.0
  0
SEQEND
  0
POLYLINE
  8
0
 66
1
 10
0.0
 20
0.0
 30
0.0
 70
9
  0
VERTEX
  8
0
 10
2.232050807568877
 20
0.13397459621556163
 30
0.0
  0
VERTEX
  8
0
 10
3.6012183309711068
 20
0.48806539369638346
 30
0.0
  0
VERTEX
  8
0
 10
1.8779600100880556
 20
1.5031421196177914
 30
0.0
  0
VERTEX
  8
0
 10
2.232050807568877
 20
0.13397459621556163
 30
0.0
  0
SEQEND
  0
POLYLINE
  8
0
 66
1
 10
0.0
 20
0.0
 30
0.0
 70
9
  0
VERTEX
  8
0
 10
3.2320508075688776
 20
-1.5980762113533158
 30
0.0
  0
VERTEX
  8
0
 10
4.594830063612244
 20
-1.9760083471897483
 30
0.0
  0
VERTEX
  8
0
 10
3.60998294340531
 20
-0.23529695530994865
 30
0.0
  0
VERTEX
  8
0
 10
3.2320508075688776
 20
-1.5980762113533158
 30
0.0
  0
SEQEND
  0
POLYLINE
  8
0
 66
1
 10
0.0
 20
0.0
 30
0.0
 70
9
  0
VERTEX
  8
0
 10
3.85243520472953
 20
-0.6682602775093165
 30
0.0
  0
VERTEX
  8
0
 10
4.538537892535613
 20
-0.4971956646132878
 30
0.0
  0
VERTEX
  8
0
 10
3.6813705918335007
 20
0.01784241029676581
 30
0.0
  0
VERTEX
  8
0
 10
3.85243520472953
 20
-0.6682602775093165
 30
0.0
  0
SEQEND
  0
POLYLINE
  8
0
 66
1
 10
0.0
 20
0.0
 30
0.0
 70
9
  0
VERTEX
  8
0
 10
4.346469707721772
 20
-1.5370329042813826
 30
0.0
  0
VERTEX
  8
0
 10
5.026184371414638
 20
-1.7319379477279129
 30
0.0
  0
VERTEX
  8
0
 10
4.5413747511683
 20
-0.857318240588516
 30
0.0
  0
VERTEX
  8
0
 10
4.346469707721772
 20
-1.5370329042813826
 30
0.0
  0
SEQEND
  0
POLYLINE
  8
0
 66
1
 10
0.0
 20
0.0
 30
0.0
 70
9
  0
VERTEX
  8
0
 10
2.520917839645607
 20
1.1244110143483415
 30
0.0
  0
VERTEX
  8
0
 10
3.029567890442444
 20
1.6156086587078953
 30
0.0
  0
VERTEX
  8
0
 10
2.029720195286053
 20
1.6330610651451787
 30
0.0
  0
VERTEX
  8
0
 10
2.520917839645607
 20
1.1244110143483415
 30
0.0
  0
SEQEND
  0
POLYLINE
  8
0
 66
1
 10
0.0
 20
0.0
 30
0.0
 70
9
  0
VERTEX
  8
0
 10
3.2916442320228305
 20
0.5275427500012073
 30
0.0
  0
VERTEX
  8
0
 10
3.9777469198289133
 20
0.6986073628972358
 30
0.0
  0
VERTEX
  8
0
 10
3.120579619126801
 20
1.2136454378072905
 30
0.0
  0
VERTEX
  8
0
 10
3.2916442320228305
 20
0.5275427500012073
 30
0.0
  0
SEQEND
  0
ENDSEC
  0
EOF
